<?xml version="1.0" encoding="UTF-8"?>
<svg width="470px" height="102px" viewBox="0 0 470 102" version="1.1" xmlns="http://www.w3.org/2000/svg" xmlns:xlink="http://www.w3.org/1999/xlink">
    <!-- Generator: Sketch 40.1 (33804) - http://www.bohemiancoding.com/sketch -->
    <title>audiotimeline</title>
    <desc>Created with Sketch.</desc>
    <defs></defs>
    <g id="Page-1" stroke="none" stroke-width="1" fill="none" fill-rule="evenodd">
        <g id="7." transform="translate(-485.000000, -745.000000)" fill="#FFFFFF">
            <g id="audiotimeline" transform="translate(485.000000, 745.000000)">
                <rect id="streep11" x="456" y="22" width="13.7807823" height="56.5722245" rx="6.89039115"></rect>
                <rect id="streep10" x="412" y="16" width="13.7807823" height="69.3952621" rx="6.89039115"></rect>
                <rect id="streep9" x="364" y="0" width="16.8431784" height="101.830004" rx="8.42158919"></rect>
                <rect id="streep8" x="320" y="16" width="13.7807823" height="69.3952621" rx="6.89039115"></rect>
                <rect id="streep7" x="276" y="16" width="13.7807823" height="69.3952621" rx="6.89039115"></rect>
                <rect id="streep6" x="228" y="0" width="16.8431784" height="101.830004" rx="8.42158919"></rect>
                <rect id="streep5" x="180" y="8" width="16.8431784" height="85.2354849" rx="8.42158919"></rect>
                <rect id="streep4" x="136" y="16" width="13.7807823" height="69.3952621" rx="6.89039115"></rect>
                <rect id="streep3" x="88" y="0" width="16.8431784" height="101.830004" rx="8.42158919"></rect>
                <rect id="streep2" x="44" y="22" width="13.7807823" height="56.5722245" rx="6.89039115"></rect>
                <rect id="streep1" x="0" y="16" width="13.7807823" height="69.3952621" rx="6.89039115"></rect>
            </g>
        </g>
    </g>
</svg>