<?xml version="1.0" encoding="UTF-8"?>
<svg width="862px" height="517px" viewBox="0 0 862 517" version="1.1" xmlns="http://www.w3.org/2000/svg" xmlns:xlink="http://www.w3.org/1999/xlink">
    <!-- Generator: Sketch 40.1 (33804) - http://www.bohemiancoding.com/sketch -->
    <title>cassettebandje</title>
    <desc>Created with Sketch.</desc>
    <defs></defs>
    <g id="Page-1" stroke="none" stroke-width="1" fill="none" fill-rule="evenodd">
        <g id="2." transform="translate(-286.000000, -278.000000)">
            <g id="cassettebandje" transform="translate(286.000000, 278.000000)">
                <g id="middenstuk">
                    <g id="bodycassette">
                        <rect id="anchorpoint2" fill="#D8D8D8" x="615" y="247" width="1" height="1"></rect>
                        <rect id="anchorpoint1" fill="#D8D8D8" x="254" y="248" width="1" height="1"></rect>
                        <rect id="achtergrond" fill="#979797" x="7.67684478" y="0" width="854.323155" height="517" rx="19"></rect>
                        <rect id="zijkant" fill="#979797" x="0" y="351" width="23" height="127" rx="4"></rect>
                        <path d="M39,362.007691 C39,364.208658 40.7915761,366 42.9973705,366 L822.002629,366 C824.206408,366 826,364.208742 826,362.007691 L826,25.9923092 C826,23.7913423 824.208424,22 822.002629,22 L42.9973705,22 C40.7935916,22 39,23.7912575 39,25.9923092 L39,362.007691 Z M42.9973705,18 L822.002629,18 C826.419455,18 830,21.5840954 830,25.9923092 L830,362.007691 C830,366.421721 826.411706,370 822.002629,370 L42.9973705,370 C38.5805447,370 35,366.415905 35,362.007691 L35,25.9923092 C35,21.5782787 38.5882941,18 42.9973705,18 Z" id="Rectangle-3" fill="#252425"></path>
                        <rect id="Rectangle" fill="#252425" x="180" y="176" width="510" height="142" rx="12"></rect>
                        <rect id="raampie" fill="#979797" x="326" y="194" width="214.951654" height="105.510204" rx="12"></rect>
                        <path d="M293.11,280.52 L285.63,272.6 L278.63,279.22 L286.09,287.121 C277.58,293.72 266.9,297.65 255.32,297.65 C249.03,297.65 243.01,296.491 237.46,294.371 L241.64,286.411 L233.11,281.93 L228.83,290.09 C217.48,283.041 209.13,271.6 206.18,258.15 L216.37,256.581 L214.9,247.071 L205.02,248.59 C205.01,248.17 205,247.741 205,247.321 C205,233.69 210.45,221.3 219.29,212.22 L226.48,219.831 L233.49,213.22 L226.65,205.98 C234.79,200.32 244.67,197 255.32,197 C261.52,197 267.47,198.13 272.96,200.19 L268.44,208.82 L276.96,213.3 L281.62,204.43 C292.19,210.93 300.19,221.23 303.69,233.411 L294.28,234.85 L295.74,244.371 L305.45,242.871 C305.58,244.34 305.65,245.821 305.65,247.321 C305.65,260.02 300.91,271.661 293.11,280.52 M255.32,191 C224.26,191 199,216.26 199,247.321 C199,278.38 224.26,303.65 255.32,303.65 C286.38,303.65 311.65,278.38 311.65,247.321 C311.65,216.26 286.38,191 255.32,191" id="weel1" fill="#959595"></path>
                        <path d="M654.11,280.52 L646.63,272.6 L639.63,279.22 L647.09,287.121 C638.58,293.72 627.9,297.65 616.32,297.65 C610.03,297.65 604.01,296.491 598.46,294.371 L602.64,286.411 L594.11,281.93 L589.83,290.09 C578.48,283.041 570.13,271.6 567.18,258.15 L577.37,256.581 L575.9,247.071 L566.02,248.59 C566.01,248.17 566,247.741 566,247.321 C566,233.69 571.45,221.3 580.29,212.22 L587.48,219.831 L594.49,213.22 L587.65,205.98 C595.79,200.32 605.67,197 616.32,197 C622.52,197 628.47,198.13 633.96,200.19 L629.44,208.82 L637.96,213.3 L642.62,204.43 C653.19,210.93 661.19,221.23 664.69,233.411 L655.28,234.85 L656.74,244.371 L666.45,242.871 C666.58,244.34 666.65,245.821 666.65,247.321 C666.65,260.02 661.91,271.661 654.11,280.52 M616.32,191 C585.26,191 560,216.26 560,247.321 C560,278.38 585.26,303.65 616.32,303.65 C647.38,303.65 672.65,278.38 672.65,247.321 C672.65,216.26 647.38,191 616.32,191" id="weel2" fill="#959595"></path>
                    </g>
                </g>
                <g id="vastklik" transform="translate(141.000000, 395.000000)" fill="#252425">
                    <path d="M0,119.755357 L42.0927657,0 L546.265731,0 L588.064007,119.262678 L0,119.755357 Z M505.547074,110.763265 C515.238055,110.763265 523.094148,103.205101 523.094148,93.8816327 C523.094148,84.5581644 515.238055,77 505.547074,77 C495.856093,77 488,84.5581644 488,93.8816327 C488,103.205101 495.856093,110.763265 505.547074,110.763265 Z M406.805344,94.4877551 C414.982109,94.4877551 421.610687,88.1105539 421.610687,80.2438776 C421.610687,72.3772012 414.982109,66 406.805344,66 C398.628578,66 392,72.3772012 392,80.2438776 C392,88.1105539 398.628578,94.4877551 406.805344,94.4877551 Z M170.805344,94.4877551 C178.982109,94.4877551 185.610687,88.1105539 185.610687,80.2438776 C185.610687,72.3772012 178.982109,66 170.805344,66 C162.628578,66 156,72.3772012 156,80.2438776 C156,88.1105539 162.628578,94.4877551 170.805344,94.4877551 Z M79.5470738,110.763265 C89.238055,110.763265 97.0941476,103.205101 97.0941476,93.8816327 C97.0941476,84.5581644 89.238055,77 79.5470738,77 C69.8560925,77 62,84.5581644 62,93.8816327 C62,103.205101 69.8560925,110.763265 79.5470738,110.763265 Z" id="Combined-Shape"></path>
                </g>
                <g id="tekstlinks" transform="translate(69.000000, 220.000000)" font-family="Plymouth-Serial-ExtraBold-Regular, Plymouth-Serial-ExtraBold" fill="#252425" font-weight="600">
                    <text id="DIGITAL" font-size="24">
                        <tspan x="0" y="23">DIGITAL</tspan>
                    </text>
                    <text id="RECORDING" font-size="16">
                        <tspan x="0" y="43">RECORDING</tspan>
                    </text>
                </g>
                <g id="tekstrechts" transform="translate(708.000000, 202.000000)" font-family="Plymouth-Serial-ExtraBold-Regular, Plymouth-Serial-ExtraBold" fill="#252425" font-weight="600">
                    <text id="S-T-E-R-E-O" font-size="18">
                        <tspan x="1" y="78">S T E R E O</tspan>
                    </text>
                    <text id="3302-025" font-size="20">
                        <tspan x="0" y="51">3302 025</tspan>
                    </text>
                    <text id="2" font-size="24">
                        <tspan x="0" y="23">2</tspan>
                    </text>
                </g>
                <path d="M423.247039,226.963634 C419.244777,224.703513 416,226.555031 416,231.09581 L416,264.60476 C416,269.150074 419.244777,270.999191 423.247039,268.741203 L452.997287,251.944454 C457.000904,249.683533 457.000904,246.020505 452.997287,243.760117 L423.247039,226.963634 L423.247039,226.963634 Z" id="play" fill="#FFFFFF"></path>
                <g id="pause" transform="translate(414.000000, 226.000000)" fill="#FFFFFF">
                    <path d="M4.16971154,0.0153459821 C6.51517428,0.0153459821 8.46972656,1.4678537 8.46972656,3.21086297 L8.46972656,39.2330544 C8.46972656,40.9760637 6.51517428,42.4285714 4.16971154,42.4285714 C1.8242488,42.4285714 0,40.9760637 0,39.2330544 L0,3.21086297 C0,1.4678537 1.8242488,0.0153459821 4.16971154,0.0153459821 L4.16971154,0.0153459821 Z" id="Shape"></path>
                    <path d="M29.7091947,0.0153459821 C32.0546575,0.0153459821 33.8789062,1.4678537 33.8789062,3.21086297 L33.8789062,39.2330544 C33.8789062,40.9760637 32.0546575,42.4285714 29.7091947,42.4285714 C27.363732,42.4285714 25.4091797,40.9760637 25.4091797,39.2330544 L25.4091797,3.21086297 C25.4091797,1.4678537 27.363732,0.0153459821 29.7091947,0.0153459821 L29.7091947,0.0153459821 Z" id="Shape"></path>
                </g>
            </g>
        </g>
    </g>
</svg>