<?xml version="1.0" encoding="UTF-8"?>
<svg width="1440px" height="106px" viewBox="0 0 1440 106" version="1.1" xmlns="http://www.w3.org/2000/svg" xmlns:xlink="http://www.w3.org/1999/xlink">
    <!-- Generator: Sketch 40.1 (33804) - http://www.bohemiancoding.com/sketch -->
    <title>controlbar</title>
    <desc>Created with Sketch.</desc>
    <defs></defs>
    <g id="Page-1" stroke="none" stroke-width="1" fill="none" fill-rule="evenodd">
        <g id="7." transform="translate(0.000000, -888.000000)">
            <g id="controlbar" transform="translate(-7.000000, 888.000000)">
                <g id="bar" fill="#979797">
                    <path d="M0,103.5 C0,104.880712 1.76743392,106 3.98095333,106 L1450.44818,106 C1452.6468,106 1454.42913,104.890338 1454.42913,103.5 L1454.42913,103.5 C1454.42913,102.119288 1452.6617,101 1450.44818,101 L3.98095333,101 C1.78233352,101 0,102.109662 0,103.5 L0,103.5" id="lijn2"></path>
                    <path d="M0,2.5 C0,3.88071187 1.76743392,5 3.98095333,5 L1450.44818,5 C1452.6468,5 1454.42913,3.89033794 1454.42913,2.5 L1454.42913,2.5 C1454.42913,1.11928813 1452.6617,0 1450.44818,0 L3.98095333,0 C1.78233352,0 0,1.10966206 0,2.5 L0,2.5" id="lijn1"></path>
                </g>
                <g id="volgende" transform="translate(800.000000, 43.000000)" fill="#979797">
                    <polyline id="Triangle-Copy" points="14.4987839 10 1.60968838e-15 20 0 0 14.4987839 10"></polyline>
                    <rect id="Rectangle" x="14.0869565" y="0" width="3.91304348" height="20"></rect>
                </g>
                <g id="playknop" transform="translate(700.000000, 26.000000)" fill="#979797">
                    <path d="M53,26.5 C53,11.8644541 41.1355459,0 26.5,0 C11.8644541,0 0,11.8644541 0,26.5 C0,41.1355459 11.8644541,53 26.5,53 C41.1355459,53 53,41.1355459 53,26.5 Z M2,26.5 C2,12.9690236 12.9690236,2 26.5,2 C40.0309764,2 51,12.9690236 51,26.5 C51,40.0309764 40.0309764,51 26.5,51 C12.9690236,51 2,40.0309764 2,26.5 Z" id="rondje"></path>
                </g>
                <g id="vorige" transform="translate(638.000000, 53.000000) scale(-1, 1) translate(-638.000000, -53.000000) translate(629.000000, 43.000000)" fill="#979797">
                    <polyline id="Triangle-Copy" points="14.4987839 10 1.60968838e-15 20 0 0 14.4987839 10"></polyline>
                    <rect id="Rectangle" x="14.0869565" y="0" width="3.91304348" height="20"></rect>
                </g>
                <path d="M719,43.6756844 L719,60.4301595 C719,62.7028161 720.622389,63.6273748 722.62352,62.498381 L737.498644,54.1000066 C739.500452,52.9695459 739.500452,51.1380316 737.498644,50.0078377 L722.62352,41.6095965 C720.622389,40.479536 719,41.4052948 719,43.6756844 Z" id="play" fill="#FFFFFF"></path>
                <g id="pause" transform="translate(717.000000, 40.000000)" fill="#FFFFFF">
                    <path d="M2.38269231,0.00871930803 C3.72295673,0.00871930803 4.83984375,0.834007786 4.83984375,1.82435396 L4.83984375,22.2915082 C4.83984375,23.2818544 3.72295673,24.1071429 2.38269231,24.1071429 C1.04242788,24.1071429 0,23.2818544 0,22.2915082 L0,1.82435396 C0,0.834007786 1.04242788,0.00871930803 2.38269231,0.00871930803 L2.38269231,0.00871930803 Z" id="Shape"></path>
                    <path d="M16.9766827,0.00871930803 C18.3169471,0.00871930803 19.359375,0.834007786 19.359375,1.82435396 L19.359375,22.2915082 C19.359375,23.2818544 18.3169471,24.1071429 16.9766827,24.1071429 C15.6364183,24.1071429 14.5195312,23.2818544 14.5195312,22.2915082 L14.5195312,1.82435396 C14.5195312,0.834007786 15.6364183,0.00871930803 16.9766827,0.00871930803 L16.9766827,0.00871930803 Z" id="Shape"></path>
                </g>
            </g>
        </g>
    </g>
</svg>