<?xml version="1.0" encoding="UTF-8"?>
<svg width="1228px" height="777px" viewBox="0 0 1228 777" version="1.1" xmlns="http://www.w3.org/2000/svg" xmlns:xlink="http://www.w3.org/1999/xlink">
    <!-- Generator: Sketch 40.1 (33804) - http://www.bohemiancoding.com/sketch -->
    <title>gettoblaster</title>
    <desc>Created with Sketch.</desc>
    <defs></defs>
    <g id="Page-1" stroke="none" stroke-width="1" fill="none" fill-rule="evenodd">
        <g id="3." transform="translate(-103.000000, -165.000000)">
            <g id="gettoblaster" transform="translate(107.000000, 165.000000)">
                <g id="handvat" transform="translate(98.000000, 0.000000)" fill="#979797">
                    <rect x="0" y="0" width="1026.59049" height="19.7528136"></rect>
                    <rect id="links" x="0" y="0" width="8.31920977" height="133.975605"></rect>
                    <rect id="rechts" x="1020" y="0" width="8.31920977" height="133.975605"></rect>
                </g>
                <rect id="Rectangle-10" fill="#979797" x="67" y="128" width="1092" height="640" rx="14"></rect>
                <rect id="Rectangle-11" fill="#979797" x="921" y="761" width="123" height="16"></rect>
                <rect id="Rectangle-11" fill="#979797" x="183" y="760" width="123" height="16"></rect>
                <g id="speakerrechtsonder" transform="translate(826.000000, 425.000000)">
                    <ellipse id="rondje4" fill="#252425" cx="141.667043" cy="146.247309" rx="141.667043" ry="146.247309"></ellipse>
                    <ellipse id="rondje3" fill="#979797" cx="141.3956" cy="146.579115" rx="129.3956" ry="133.579115"></ellipse>
                    <ellipse id="rondje2" fill="#252425" cx="141.305687" cy="147.899799" rx="49.3056866" ry="50.8997988"></ellipse>
                    <ellipse id="rondje1" fill="#979797" cx="140.139009" cy="146.598407" rx="45.1390089" ry="46.5984073"></ellipse>
                </g>
                <g id="speakerlinksonder" transform="translate(115.000000, 427.000000)">
                    <ellipse id="rondje4" fill="#252425" cx="141.667043" cy="146.247309" rx="141.667043" ry="146.247309"></ellipse>
                    <ellipse id="rondje3" fill="#979797" cx="139.3956" cy="145.579115" rx="129.3956" ry="133.579115"></ellipse>
                    <ellipse id="rondje2" fill="#252425" cx="140.305687" cy="145.899799" rx="49.3056866" ry="50.8997988"></ellipse>
                    <ellipse id="rondje1" fill="#979797" cx="141.139009" cy="144.598407" rx="45.1390089" ry="46.5984073"></ellipse>
                </g>
                <g id="speakerrechtboven" transform="translate(945.000000, 162.000000)">
                    <ellipse id="rondje4" fill="#252425" cx="82.4495345" cy="85.1152272" rx="82.4495345" ry="85.1152272"></ellipse>
                    <ellipse id="rondje3" fill="#979797" cx="82.3076137" cy="85.7423994" rx="75.3076137" ry="77.7423994"></ellipse>
                    <ellipse id="rondje2" fill="#252425" cx="81.6956713" cy="85.6234369" rx="28.6956713" ry="29.6234369"></ellipse>
                    <ellipse id="rondje1" fill="#979797" cx="81.270685" cy="84.1200479" rx="26.270685" ry="27.1200479"></ellipse>
                </g>
                <g id="speakerlinksboven" transform="translate(115.000000, 165.000000)">
                    <ellipse id="rondje4" fill="#252425" cx="82.4495345" cy="85.1152272" rx="82.4495345" ry="85.1152272"></ellipse>
                    <ellipse id="rondje3" fill="#979797" cx="82.3076137" cy="85.7423994" rx="75.3076137" ry="77.7423994"></ellipse>
                    <ellipse id="rondje2" fill="#252425" cx="82.6956713" cy="87.6234369" rx="28.6956713" ry="29.6234369"></ellipse>
                    <ellipse id="rondje1" fill="#979797" cx="83.270685" cy="86.1200479" rx="26.270685" ry="27.1200479"></ellipse>
                </g>
                <rect id="achtergrond" fill="#252425" x="452" y="659" width="321" height="43" rx="4"></rect>
                <path d="M710,707.240852 L710,657.12957" id="lijntje4" stroke="#979797" stroke-width="4" stroke-linecap="square"></path>
                <path d="M642,709.240852 L642,659.12957" id="lijntje3" stroke="#979797" stroke-width="4" stroke-linecap="square"></path>
                <path d="M576,709.240852 L576,659.12957" id="lijntje2" stroke="#979797" stroke-width="4" stroke-linecap="square"></path>
                <path d="M509,709.240852 L509,659.12957" id="lijntje1" stroke="#979797" stroke-width="4" stroke-linecap="square"></path>
                <rect id="Rectangle-16" stroke="#252425" stroke-width="4" x="859" y="364" width="301" height="4"></rect>
                <rect id="Rectangle-16" stroke="#252425" stroke-width="4" x="67" y="364" width="301" height="4"></rect>
                <rect id="Rectangle-14" stroke="#252425" stroke-width="4" x="369" y="323" width="488" height="84"></rect>
                <circle id="Oval-3" fill="#252425" cx="418.5" cy="364.5" r="20.5"></circle>
                <circle id="Oval-3-Copy" fill="#252425" cx="480.5" cy="363.5" r="20.5"></circle>
                <circle id="Oval-3-Copy-2" fill="#252425" cx="543.5" cy="363.5" r="20.5"></circle>
                <rect id="Rectangle-12" fill="#252425" x="666" y="342" width="14" height="42" rx="4"></rect>
                <rect id="Rectangle-12-Copy" fill="#252425" x="704" y="342" width="14" height="42" rx="4"></rect>
                <rect id="Rectangle-12-Copy-2" fill="#252425" x="742" y="342" width="14" height="42" rx="4"></rect>
                <rect id="Rectangle-12-Copy-3" fill="#252425" x="779" y="342" width="14" height="42" rx="4"></rect>
                <rect id="Rectangle-12-Copy-4" fill="#252425" x="816" y="342" width="14" height="42" rx="4"></rect>
                <path d="M453,619.995298 C453,624.416087 456.58249,628 461.000403,628 L760.999597,628 C765.419434,628 769,624.417585 769,619.995298 L769,444.004702 C769,439.583913 765.41751,436 760.999597,436 L461.000403,436 C456.580566,436 453,439.582415 453,444.004702 L453,619.995298 Z M461.000403,432 L760.999597,432 C767.627237,432 773,437.375362 773,444.004702 L773,619.995298 C773,626.625312 767.629985,632 760.999597,632 L461.000403,632 C454.372763,632 449,626.624638 449,619.995298 L449,444.004702 C449,437.374688 454.370015,432 461.000403,432 Z" id="raampie" fill="#252425"></path>
                <rect id="Rectangle-19" fill="#252425" x="466" y="583" width="290" height="31" rx="4"></rect>
                <path d="M602.976351,669.528733 C600.780365,668.288635 599,669.304538 599,671.796001 L599,690.181904 C599,692.675855 600.780365,693.69044 602.976351,692.451513 L619.299905,683.235367 C621.496635,681.994831 621.496635,679.984977 619.299905,678.744733 L602.976351,669.528733 L602.976351,669.528733 Z" id="play" fill="#FFFFFF"></path>
                <g id="pause" transform="translate(600.000000, 670.000000)" fill="#FFFFFF">
                    <path d="M2.02528846,0.00767299107 C3.16451322,0.00767299107 4.11386719,0.733926851 4.11386719,1.60543148 L4.11386719,19.6165272 C4.11386719,20.4880319 3.16451322,21.2142857 2.02528846,21.2142857 C0.886063702,21.2142857 0,20.4880319 0,19.6165272 L0,1.60543148 C0,0.733926851 0.886063702,0.00767299107 2.02528846,0.00767299107 L2.02528846,0.00767299107 Z" id="Shape"></path>
                    <path d="M14.4301803,0.00767299107 C15.569405,0.00767299107 16.4554687,0.733926851 16.4554687,1.60543148 L16.4554687,19.6165272 C16.4554687,20.4880319 15.569405,21.2142857 14.4301803,21.2142857 C13.2909555,21.2142857 12.3416016,20.4880319 12.3416016,19.6165272 L12.3416016,1.60543148 C12.3416016,0.733926851 13.2909555,0.00767299107 14.4301803,0.00767299107 L14.4301803,0.00767299107 Z" id="Shape"></path>
                </g>
                <g id="sound" transform="translate(0.000000, 159.000000)" stroke-linecap="round" stroke="#52CA9C">
                    <g id="soundlb" transform="translate(43.000000, 2.000000)" stroke-width="6">
                        <path d="M6,6.08203125 C6,6.08203125 24.1933594,-5.88085938 33.6992188,10.96875 C43.2050781,27.8183594 60.4082031,21.9414062 60.4082031,21.9414062 C60.4082031,21.9414062 90.7929688,19.2382812 98.8378906,33.90625 C106.882812,48.5742188 114.628906,51 114.628906,51" id="Path-42" transform="translate(60.314453, 26.481609) rotate(182.000000) translate(-60.314453, -26.481609) "></path>
                        <path d="M100.394531,100.144531 C100.394531,100.144531 65.8554687,84.4296875 46.6445312,99.9023438 C27.4335938,115.375 27.953125,135.792969 0.63671875,135.792969" id="Path-70"></path>
                        <path d="M128.921875,137.03125 C128.921875,137.03125 99.3710938,156.347656 105.667969,167.972656 C111.964844,179.597656 84.6484375,212.050781 84.6484375,212.050781" id="Path-71"></path>
                    </g>
                    <g id="soundrb" transform="translate(1122.500000, 25.500000) scale(-1, 1) translate(-1122.500000, -25.500000) translate(1067.000000, 0.000000)" stroke-width="6">
                        <path d="M1,5.08203125 C1,5.08203125 19.1933594,-6.88085938 28.6992188,9.96875 C38.2050781,26.8183594 55.4082031,20.9414062 55.4082031,20.9414062 C55.4082031,20.9414062 85.7929688,18.2382812 93.8378906,32.90625 C101.882812,47.5742188 109.628906,50 109.628906,50" id="Path-42" transform="translate(55.314453, 25.481609) rotate(179.000000) translate(-55.314453, -25.481609) "></path>
                    </g>
                    <g id="soundlo" transform="translate(0.000000, 74.000000)">
                        <path d="M206.605469,375.938645 C206.605469,375.938645 135.703125,357.618332 114.046875,400.001145 C92.390625,442.383957 128.808594,466.438645 79.3203125,471.442551 C29.8320313,476.446457 6.1953125,457.126145 2.84217094e-14,481.524582" id="Path-43" stroke-width="8"></path>
                        <path d="M155.017335,494.279359 C155.017335,494.279359 197.743434,463.626154 213.767876,478.952756 C229.792317,494.279359 236.558192,492.975578 246.350906,492.975578 C256.14362,492.975578 259.127383,476.910932 271.590837,483.320709" id="Path-68" stroke-width="8" transform="translate(213.304086, 484.470333) rotate(-223.000000) translate(-213.304086, -484.470333) "></path>
                        <path d="M21.2254768,322.642487 C21.2254768,322.642487 40.3036018,260.798737 81.5692268,274.408112 C122.834852,288.017487 166.428602,280.220612 166.428602,277.314362" id="Path-69" stroke-width="8" transform="translate(93.827039, 297.546970) rotate(-174.000000) translate(-93.827039, -297.546970) "></path>
                        <path d="M1185.0152,27.3739504 C1185.0152,27.3739504 1150.47614,11.6591067 1131.2652,27.1317629 C1112.05426,42.6044192 1112.57379,63.0223879 1085.25739,63.0223879" id="Path-70" stroke-width="6" transform="translate(1135.136292, 41.669824) rotate(-153.000000) translate(-1135.136292, -41.669824) "></path>
                        <path d="M1088.92063,61.8041491 C1088.92063,61.8041491 1059.36985,81.1205553 1065.66672,92.7455553 C1071.9636,104.370555 1044.64719,136.82368 1044.64719,136.82368" id="Path-71" stroke-width="6" transform="translate(1066.783909, 99.313915) rotate(-80.000000) translate(-1066.783909, -99.313915) "></path>
                    </g>
                    <g id="soundro" transform="translate(1092.500000, 476.500000) scale(-1, 1) translate(-1092.500000, -476.500000) translate(965.000000, 341.000000)" stroke-width="8">
                        <path d="M206.605469,112.938645 C206.605469,112.938645 135.703125,94.618332 114.046875,137.001145 C92.390625,179.383957 128.808594,203.438645 79.3203125,208.442551 C29.8320313,213.446457 6.1953125,194.126145 2.84217094e-14,218.524582" id="Path-43"></path>
                        <path d="M154.017335,227.279359 C154.017335,227.279359 196.743434,196.626154 212.767876,211.952756 C228.792317,227.279359 235.558192,225.975578 245.350906,225.975578 C255.14362,225.975578 258.127383,209.910932 270.590837,216.320709" id="Path-68" transform="translate(212.304086, 217.470333) rotate(-234.000000) translate(-212.304086, -217.470333) "></path>
                        <path d="M19.3423199,63.5829889 C19.3423199,63.5829889 38.4204449,1.73923888 79.6860699,15.3486139 C120.951695,28.9579889 164.545445,21.1611139 164.545445,18.2548639" id="Path-69" transform="translate(91.943882, 38.487472) rotate(-169.000000) translate(-91.943882, -38.487472) "></path>
                    </g>
                </g>
            </g>
        </g>
    </g>
</svg>