<?xml version="1.0" encoding="UTF-8"?>
<svg width="413px" height="533px" viewBox="0 0 413 533" version="1.1" xmlns="http://www.w3.org/2000/svg" xmlns:xlink="http://www.w3.org/1999/xlink">
    <!-- Generator: Sketch 40.1 (33804) - http://www.bohemiancoding.com/sketch -->
    <title>koptelefoon</title>
    <desc>Created with Sketch.</desc>
    <defs></defs>
    <g id="Page-1" stroke="none" stroke-width="1" fill="none" fill-rule="evenodd">
        <g id="4." transform="translate(-1027.000000, -279.000000)">
            <g id="koptelefoon" transform="translate(1027.000000, 279.000000)">
                <path d="M67.5576172,151.511719 C67.5576172,151.511719 64.8408203,114.814453 52.4755859,114.814453 C40.1103516,114.814453 43.0844727,115.231445 43.0844727,115.231445 C43.0844727,115.231445 34.0620117,113 32.0874023,113 C30.112793,113 32.3994141,117.364258 32.3994141,117.364258 C32.3994141,117.364258 37.1230469,148.035156 36.0380859,170.746094 C34.953125,193.457031 33.2089844,211.257813 31.9482422,217.855469 C30.6875,224.453125 29,228.706055 29,228.706055 C29,228.706055 36.5839844,228.414063 38.4003906,227.306641 C40.2167969,226.199219 46.9980469,228.606445 46.9980469,228.606445 C46.9980469,228.606445 57.2509766,231.216797 63.0390625,219.312988 C68.8271484,207.40918 68.9013672,185.606934 68.9013672,185.606934 L67.5576172,151.511719 Z" id="Path-20" fill="#979797"></path>
                <path d="M146.300781,195.390683 C146.300781,195.390683 123.641602,219.825253 117.099609,230.224668 C110.557617,240.624082 110,245.0733 110,245.0733 C110,245.0733 112.427734,251.585019 119.027344,255.702207 C125.626953,259.819394 123.788086,262.410214 123.788086,262.410214 C123.788086,262.410214 127.53418,271.202207 131.226562,265.788144 C134.918945,260.374082 143.438477,247.368222 153.241211,235.677793 C163.043945,223.987363 191.253906,197.337949 191.253906,197.337949 L208.164062,183.666074 C208.164062,183.666074 202.081055,178.407285 200.210938,176.556699 C198.34082,174.706113 197.02832,172.23541 197.02832,172.23541 C197.02832,172.23541 191.509766,166.080136 187.628906,166.080136 C183.748047,166.080136 179.532227,164.565488 166.898438,174.706113 C154.264648,184.846738 146.300781,195.390683 146.300781,195.390683 Z" id="Path-21" fill="#979797"></path>
                <path d="M16.5761719,226.246693 C16.5761719,226.246693 28.7158203,230.818958 31.9228516,228.532826 C35.1298828,226.246693 38.9160156,205.367787 38.9160156,205.367787 C38.9160156,205.367787 41.9550781,170.530872 39.7207031,149.012318 C37.4863281,127.493763 37.2763672,121.935169 35.1181641,117.499622 C32.9599609,113.064076 30.3574219,113.598255 30.3574219,113.598255 C30.3574219,113.598255 26.1572266,115.498646 25.1025391,113.079701 C24.0478516,110.660755 21.7290039,104.000599 22.7758789,100.252552 C23.8227539,96.5045053 40.2480469,55.672474 75.9267578,37.9908334 C111.605469,20.3091928 144.543945,27.5244141 144.543945,27.5244141 C144.543945,27.5244141 172.969727,34.9863281 191.704102,49.5742188 C210.438477,64.1621094 220.636719,79.2525522 220.636719,79.2525522 C220.636719,79.2525522 230.367188,92.8834115 232.981445,120.947865 C235.595703,149.012318 229.999023,167.050404 229.999023,167.050404 C229.999023,167.050404 225.220215,180.968861 221.107422,183.612904 C216.994629,186.256947 214.87793,186.638294 214.87793,186.638294 L207.953125,183.28429 C207.953125,183.28429 207.977051,181.686634 197.876465,189.866322 C187.775879,198.046009 170.509766,214.276478 170.509766,214.276478 C170.509766,214.276478 140.817383,244.483021 134.058594,254.583607 C127.299805,264.684193 128.640625,267.514271 128.640625,267.514271 C128.640625,267.514271 135.300781,272.157826 135.300781,272.157826 C135.300781,272.157826 128.99707,280.500599 128.99707,280.500599 L132.990723,282.121693 L138.894043,274.129994 C138.894043,274.129994 146.365723,279.338001 150.738281,279.338001 C155.11084,279.338001 189.530273,249.624622 195.966797,242.353138 C202.40332,235.081654 212.696289,220.224232 214.62793,215.783802 C216.55957,211.343372 219.023438,211.243763 219.023438,211.243763 C219.023438,211.243763 224.47168,212.108997 227.235352,206.933216 C229.999023,201.757435 243.898438,183.766224 249.700195,160.009388 C255.501953,136.252552 254.357422,102.33849 247.770508,82.281849 C241.183594,62.2252084 222.141602,36.266224 193.964844,18.5259897 C165.788086,0.785755285 139.018555,0.336536535 139.018555,0.336536535 C139.018555,0.336536535 81.1088867,-4.81483065 51.9423828,25.1910287 C22.7758789,55.1968881 15.1279297,75.1861459 15.1279297,75.1861459 C15.1279297,75.1861459 3.51025391,103.468861 4.26074219,108.881947 C5.01123047,114.295033 2.97802734,118.533314 2.97802734,118.533314 C2.97802734,118.533314 2.56396484,124.708119 3.74462891,126.403431 C4.92529297,128.098744 3.78076172,138.156361 3.78076172,138.156361 C3.78076172,138.156361 -2.26740444e-13,160.26183 -2.27373675e-13,171.77306 C-2.27373675e-13,183.28429 3.65722656,211.370716 3.65722656,211.370716 C3.65722656,211.370716 3.80175781,219.165638 8.7578125,221.883412 C13.7138672,224.601185 16.5761719,226.246693 16.5761719,226.246693 Z" id="Path-22" fill="#979797"></path>
                <path d="M130.725455,279 C130.725455,279 116.912204,298.14751 111.103073,307.777653 C105.293942,317.407796 91.687902,361.724143 101.395488,375.865306 C111.103073,390.006468 143.355677,409.899181 172.013414,404.079081 C200.671152,398.258981 234.834432,428.089205 241.824183,460.909086 C248.813934,493.728966 278.645062,532.278284 331.825958,532.278284 C385.006855,532.278284 454.53331,513.836174 490.983138,565.359096 C527.432966,616.882018 559.700026,611.866826 559.700026,611.866826 L560,608.396215 L526.033088,595.402709 C526.033088,595.402709 511.358466,587.60351 496.975386,568.094455 C482.592305,548.585399 476.141061,544.89366 476.141061,544.89366 C476.141061,544.89366 460.913476,535.212658 451.69139,532.623244 C442.469304,530.03383 428.83676,526.259168 415.921021,526.259168 C403.005282,526.259168 388.2897,526.533368 388.2897,526.533368 C388.2897,526.533368 336.124078,529.147105 332.562039,529.147105 C329,529.147105 265.393208,532.092536 245.614213,460.256757 C225.835218,388.420977 166.611477,401.153552 166.611477,401.153552 C166.611477,401.153552 153.889697,403.591493 140.39449,398.37839 C126.899284,393.165288 115.56172,386.878607 110.095932,380.73787 C104.630145,374.597134 104.067543,374.83153 102.731515,370.605766 C101.395488,366.380002 99.1101451,354.271009 106.709481,327.895917 C114.308817,301.520824 133.245717,279.621371 133.245717,279.621371 L130.725455,279 Z" id="Path-23" stroke="#979797"></path>
                <path d="M42.0820312,112 C42.0820312,112 64.4472656,180.214844 40,232.21875" id="Path-24" stroke="#252425" stroke-width="2"></path>
                <path d="M37.0820312,112 C37.0820312,112 59.4472656,180.214844 35,232.21875" id="Path-24-Copy" stroke="#252425" stroke-width="2"></path>
                <path d="M119,269 C119,269 175.37024,189.652061 208.832031,169" id="Path-25" stroke="#252425" stroke-width="2"></path>
                <path d="M124,271 C124,271 180.37024,191.652061 213.832031,171" id="Path-25-Copy" stroke="#252425" stroke-width="2"></path>
            </g>
        </g>
    </g>
</svg>