<?xml version="1.0" encoding="UTF-8"?>
<svg width="439px" height="458px" viewBox="0 0 439 458" version="1.1" xmlns="http://www.w3.org/2000/svg" xmlns:xlink="http://www.w3.org/1999/xlink">
    <!-- Generator: Sketch 40.1 (33804) - http://www.bohemiancoding.com/sketch -->
    <title>mic</title>
    <desc>Created with Sketch.</desc>
    <defs></defs>
    <g id="Page-1" stroke="none" stroke-width="1" fill="none" fill-rule="evenodd">
        <g id="4." transform="translate(0.000000, -105.000000)">
            <g id="mic" transform="translate(-132.000000, 94.000000)">
                <path d="M330.869894,350.875927 C326.847788,346.751859 321.292206,344.110958 315.080473,343.89404 C302.281412,343.447087 291.543396,353.460449 291.096443,366.25951 C291.05658,367.401027 291.099923,368.52615 291.221028,369.62904 L257.824384,387.38635 C255.473201,388.636497 254.530227,391.481334 255.613177,393.86551 L0.79066243,518.150755 L6.63921095,530.142056 L261.87161,405.656898 L261.999762,405.897917 C263.297779,408.339131 266.324954,409.260301 268.765104,407.96285 L302.914566,389.805259 C303.660266,389.408763 304.264315,388.851856 304.707004,388.200112 C307.385475,389.41363 310.340872,390.134551 313.461913,390.24354 C326.260974,390.690493 336.998991,380.677131 337.445944,367.87807 C337.563849,364.501709 336.95383,361.268775 335.756773,358.330349 L351.166784,346.718072 L345.814023,339.614718 L330.869894,350.875927 Z" id="stang" fill="#252425"></path>
                <path d="M487.474917,316.028272 L512.590823,317.612829 C512.590823,317.612829 516.668233,318.847468 520.053253,317.43787 C523.438273,316.028272 525.695367,312.320633 525.695367,312.320633 L449.181257,238.181497 C449.181257,238.181497 423.647187,167.634601 419.683934,167.634601 C415.720681,167.634601 410.2436,170.039355 410.2436,170.039355 C410.2436,170.039355 408.909694,171.585446 407.245723,178.276072 C405.581752,184.966698 399.679061,213.547038 399.679061,213.547038 L408.731012,217.598391 L414.301157,192.759193 L437.168655,247.124253 L509.865931,310.635568 L485.443657,308.470297 L484.410035,316.240456 L487.474917,316.028272 Z" id="Path-12" stroke="#252425" stroke-width="2" fill="#979797" transform="translate(462.687214, 242.873887) rotate(2.000000) translate(-462.687214, -242.873887) "></path>
                <path d="M341.17641,265.298882 L299.264451,263.123684 L345.540455,295.278892 C345.540455,295.278892 358.432815,305.747886 366.756391,322.14935 C375.079967,338.550815 398.639855,383.492912 398.639855,383.492912 L403.688846,357.981177 L411.910672,363.393735 L400.690969,410.81876 C400.690969,410.81876 367.204335,363.811899 362.376215,345.417641 C357.548094,327.023382 336.218001,308.352416 336.218001,308.352416 L289.205557,271.593679 C289.205557,271.593679 281.782833,267.006282 285.494195,262.054697 C289.205557,257.103113 291.509802,256.573893 291.509802,256.573893 L343.347265,255.693515 L341.17641,265.298882 Z" id="Path-13" stroke="#252425" stroke-width="2" fill="#979797" transform="translate(348.182843, 333.256137) rotate(2.000000) translate(-348.182843, -333.256137) "></path>
                <path d="M416.251261,379.055863 L409.526091,370.99286 C409.526091,370.99286 419.657936,370.438083 431.593095,362.093942 C443.528254,353.749802 473.236989,335.906986 478.088053,325.122578 C482.939118,314.33817 482.817407,317.859252 482.817407,317.859252 C482.817407,317.859252 535.581755,379.055863 545.880583,402.935748 C556.179412,426.815632 541.513396,442.504107 530.377654,451.854693 C519.241912,461.205279 497.296299,470.671292 480.363344,458.708793 C463.430388,446.746295 416.251261,379.055863 416.251261,379.055863 Z" id="Path-14" fill="#979797" transform="translate(479.450949, 390.818206) rotate(2.000000) translate(-479.450949, -390.818206) "></path>
                <path d="M426.222805,379.784247 L418.543815,369.357195 C418.543815,369.357195 464.306484,344.484492 470.800651,334.991439 C477.294819,325.498386 476.919792,326.706283 476.919792,326.706283 C476.919792,326.706283 510.804558,365.968002 528.962761,390.267806 C547.120964,414.567611 535.182983,432.742925 535.182983,432.742925 C535.182983,432.742925 504.314323,479.534408 469.350831,434.079886 C434.387339,388.625365 426.222805,379.784247 426.222805,379.784247 Z" id="Path-15" fill="#252425" transform="translate(478.789228, 390.298793) rotate(2.000000) translate(-478.789228, -390.298793) "></path>
                <path d="M337.008151,261.545465 C337.008151,261.545465 342.512531,278.552461 350.10401,289.784573 C357.695488,301.016685 371.085426,319.090806 371.085426,319.090806 L396.959487,354.983434 L401.992347,362.14434 C401.992347,362.14434 410.009434,374.926265 423.975124,367.543248 C437.940813,360.160232 466.86069,340.178756 475.400626,331.742442 C483.940562,323.306128 490.654311,315.051861 484.379367,305.066797 C478.104423,295.081732 446.857512,253.195831 446.857512,253.195831 C446.857512,253.195831 426.273165,226.314206 420.607475,222.453943 C414.941786,218.59368 408.695381,213.23696 405.343864,211.893127 C401.992347,210.549294 399.93627,209.891647 399.93627,209.891647 C399.93627,209.891647 402.228107,217.669252 389.627345,229.362957 C377.026583,241.056663 367.552746,246.944464 367.552746,246.944464 C367.552746,246.944464 351.084276,259.468293 344.046214,260.506879 C337.008151,261.545465 337.008151,261.545465 337.008151,261.545465 Z" id="Path-16" stroke="#252425" stroke-width="2" fill="#979797" transform="translate(411.924864, 289.865599) rotate(2.000000) translate(-411.924864, -289.865599) "></path>
                <path d="M443.333696,249.035224 C453.558244,241.781157 463.513978,240.99215 463.513978,240.99215 C463.513978,240.99215 480.120102,239.636592 482.920539,248.593805 C485.720976,257.551018 475.94797,270.294011 465.887187,281.987419 C455.826404,293.680827 413.073147,325.214781 389.276403,341.423788 C365.47966,357.632795 349.176526,354.37118 349.176526,354.37118 C349.176526,354.37118 341.732358,353.233816 341.732358,340.534713 C341.732358,327.835609 362.963196,309.912405 362.963196,309.912405 C362.963196,309.912405 363.208339,309.726085 363.671634,309.373996 C367.722072,314.950451 370.809632,319.118128 370.809632,319.118128 L371.122778,319.552525 C370.410915,320.083642 370.028544,320.368914 370.028544,320.368914 C370.028544,320.368914 359.61663,329.242183 359.61663,337.043364 C359.61663,344.844545 378.639996,333.32828 378.639996,333.32828 C378.639996,333.32828 457.094784,272.987319 461.318614,263.870845 C465.542444,254.75437 460.374333,257.095841 460.374333,257.095841 C460.374333,257.095841 455.53867,257.511333 451.596245,259.633225 C449.10623,256.221926 446.581718,253.223154 446.581718,253.223154 C446.581718,253.223154 445.319306,251.574537 443.333696,249.035224 Z" id="Combined-Shape" stroke="#252425" stroke-width="2" fill="#979797" transform="translate(412.569610, 297.779365) rotate(2.000000) translate(-412.569610, -297.779365) "></path>
                <path d="M374.405788,279.459401 L296.681856,275.625196 C296.681856,275.625196 292.932029,273.855754 291.21222,274.740475 C289.492411,275.625196 284.364007,278.32403 284.364007,278.32403 C284.364007,278.32403 279.17356,279.523925 285.19289,285.139981 C291.21222,290.756037 359.22035,344.5652 359.22035,344.5652 C359.22035,344.5652 362.878356,346.33216 367.186563,356.102559 C371.49477,365.872958 422.083945,451.993675 422.083945,451.993675 C422.083945,451.993675 424.527165,455.599565 428.066049,453.79662 C431.604934,451.993675 433.840313,451.140595 433.840313,451.140595 C433.840313,451.140595 436.120362,449.394729 434.354022,446.150545 C432.587682,442.90636 435.277209,436.555105 435.277209,436.555105 C435.277209,436.555105 448.165226,351.940771 451.294633,345.356857 C454.424039,338.772944 458.852608,340.263817 458.852608,340.263817 L558.295017,343.519169 C558.295017,343.519169 568.155998,345.091317 569.911791,341.683962 C571.667584,338.276607 570.004854,333.897671 570.004854,333.897671 L543.981272,308.795415 L482.69665,251.912684 C482.69665,251.912684 480.32788,251.201681 478.215965,242.289946 C476.10405,233.37821 449.659202,169.582742 449.659202,169.582742 C449.659202,169.582742 448.102564,165.213734 443.252108,168.875462 C438.401652,172.53719 434.414823,174.845158 434.414823,174.845158 C434.414823,174.845158 431.624167,176.035747 432.73224,179.264421 C433.840313,182.493095 432.160832,184.416402 432.160832,184.416402 L421.60622,226.938234 L410.520528,275.125136 C410.520528,275.125136 410.690523,281.849265 402.909196,280.654333 C395.127869,279.459401 387.553762,279.842822 387.553762,279.842822 L374.405788,279.459401 Z M433.093946,221.703117 L417.625595,276.114088 C417.625595,276.114088 415.52857,281.769851 416.577083,283.683231 C417.625595,285.596612 422.808597,291.974545 422.808597,291.974545 L450.357796,327.262883 L454.829795,332.883902 L552.595825,335.118661 C552.595825,335.118661 479.624322,272.132223 471.259799,262.204237 C462.895275,252.276251 457.988981,236.888555 457.988981,236.888555 L439.991793,196.303058 L433.093946,221.703117 Z M407.649217,289.840295 L307.732805,284.545617 C307.732805,284.545617 362.715805,321.744854 368.192887,327.837393 C373.669968,333.929933 382.781479,345.091317 382.781479,345.091317 L426.394634,431.513559 L441.245044,348.398164 C441.245044,348.398164 440.803304,344.034119 442.252609,340.037363 C443.701914,336.040607 439.212543,332.473183 439.212543,332.473183 L407.649217,289.840295 Z" id="Combined-Shape" stroke="#252425" stroke-width="2" fill="#979797" transform="translate(426.500727, 310.857285) rotate(2.000000) translate(-426.500727, -310.857285) "></path>
                <path d="M336.68314,166.345696 L315.819604,144.694224 C315.819604,144.694224 311.309139,141.80306 306.299856,146.230388 C301.290572,150.657717 298.49123,152.556206 300.87613,156.095091 C303.261031,159.633976 316.964902,185.103522 316.964902,185.103522 L334.792095,215.244842 C334.792095,215.244842 330.229515,225.743616 335.215223,232.894595 C340.200931,240.045574 341.536078,240.165315 341.536078,240.165315 C341.536078,240.165315 330.303345,263.488823 341.035398,261.584129 C351.76745,259.679435 368.592662,253.562078 385.471231,238.513133 C402.3498,223.464187 405.111916,217.358618 405.111916,212.00438 C405.111916,206.650142 396.387548,203.37928 396.387548,203.37928 C396.387548,203.37928 386.055048,203.299866 383.201729,204.45385 C380.34841,205.607834 380.344067,204.854022 380.344067,204.854022 C380.344067,204.854022 376.956565,197.770669 370.559709,195.449051 C364.162852,193.127434 362.17223,193.726451 362.17223,193.726451 L336.68314,166.345696 Z" id="Path-17" stroke="#252425" stroke-width="2" fill="#979797" transform="translate(352.562433, 202.730797) rotate(2.000000) translate(-352.562433, -202.730797) "></path>
                <path d="M352.302677,206.920803 C352.302677,206.920803 343.316537,213.844158 339.153752,214.631138 C334.990966,215.418118 333.408006,214.917313 333.408006,214.917313 C333.408006,214.917313 332.439194,213.927402 332.439194,213.127049 C332.439194,212.326696 331.110041,217.845923 331.110041,217.845923 C331.110041,217.845923 328.894899,227.370926 333.295462,233.371901 C337.696025,239.372877 339.20084,239.761353 339.20084,239.761353 C339.20084,239.761353 344.451994,243.290729 350.696673,238.769102 C356.941352,234.247476 377.91992,218.013415 379.487853,215.275365 C381.055785,212.537316 383.203802,209.696296 382.08137,205.420392 C380.958937,201.144488 374.262747,194.742333 374.262747,194.742333 C374.262747,194.742333 366.812146,191.117008 364.308464,191.117008 C361.804781,191.117008 361.167589,190.911403 361.167589,190.911403 C361.167589,190.911403 364.182227,192.155394 363.298575,194.290337 C362.414922,196.42528 359.32147,200.300005 357.001464,202.860199 C354.681459,205.420392 352.302677,206.920803 352.302677,206.920803 Z" id="Path-18" fill="#252425" transform="translate(356.473001, 215.992037) rotate(2.000000) translate(-356.473001, -215.992037) "></path>
                <path d="M315.931031,141.337762 L288.821656,109.290887 C288.821656,109.290887 245.513063,52.1854185 203.431031,52.1854185 C161.349,52.1854185 118.0365,4.1072935 118.0365,4.1072935 L115.528688,16.3104185 L147.231813,42.3611997 C147.231813,42.3611997 174.934938,61.6815122 204.239625,61.6815122 C233.544313,61.6815122 254.860719,87.568231 254.860719,87.568231 C254.860719,87.568231 295.868531,126.9862 305.899781,145.876825 C315.931031,164.76745 315.931031,141.337762 315.931031,141.337762 Z" id="Path-19" stroke="#979797" stroke-width="2" transform="translate(215.729860, 78.672816) rotate(2.000000) translate(-215.729860, -78.672816) "></path>
            </g>
        </g>
    </g>
</svg>