<?xml version="1.0" encoding="UTF-8"?>
<svg width="1187px" height="682px" viewBox="0 0 1187 682" version="1.1" xmlns="http://www.w3.org/2000/svg" xmlns:xlink="http://www.w3.org/1999/xlink">
    <!-- Generator: Sketch 40.1 (33804) - http://www.bohemiancoding.com/sketch -->
    <title>microphone</title>
    <desc>Created with Sketch.</desc>
    <defs>
        <path d="M1098,179.486519 C1098,174.925381 1094.85756,171.227848 1090.98727,171.227848 L1077.85002,171.227848 C1073.977,171.227848 1070.8373,174.912741 1070.8373,179.486519 L1070.8373,244.424874 C1070.8373,248.986011 1073.97974,252.683544 1077.85002,252.683544 L1090.98727,252.683544 C1094.8603,252.683544 1098,248.998652 1098,244.424874 L1098,179.486519" id="path-1"></path>
        <mask id="mask-2" maskContentUnits="userSpaceOnUse" maskUnits="objectBoundingBox" x="0" y="0" width="27.1627022" height="81.4556962" fill="white">
            <use xlink:href="#path-1"></use>
        </mask>
        <path d="M271.627022,128.755269 C271.627022,124.337393 275.195381,120.918844 279.613845,121.120487 L1068.96149,157.143472 C1073.37249,157.344774 1076.94832,161.091214 1076.94832,165.511873 L1076.94832,256.282757 C1076.94832,260.703194 1073.36891,264.441828 1068.96149,264.632882 L279.613845,298.849689 C275.202845,299.040898 271.627022,295.611363 271.627022,291.196632 L271.627022,128.755269 Z" id="path-3"></path>
        <mask id="mask-4" maskContentUnits="userSpaceOnUse" maskUnits="objectBoundingBox" x="0" y="0" width="805.321293" height="177.745305" fill="white">
            <use xlink:href="#path-3"></use>
        </mask>
    </defs>
    <g id="Page-1" stroke="none" stroke-width="1" fill="none" fill-rule="evenodd">
        <g id="Homepage" transform="translate(-147.000000, -271.000000)">
            <g id="microphone" transform="translate(147.000000, 271.000000)">
                <path d="M1096.40549,209.364737 C1096.40549,209.364737 1227.29357,243.297312 1168.47254,389.918608 C1109.65151,536.539904 897.336525,439.835793 897.336525,439.835793 C897.336525,439.835793 670.142382,312.976861 577.013721,388.687373 C483.885061,464.397886 537.454213,561.380242 537.454213,561.380242 C537.454213,561.380242 577.013721,616.43886 573,679.206292" id="snoer" stroke="#979797" stroke-width="5" stroke-linecap="round"></path>
                <ellipse id="kop" fill="#979797" cx="146.637423" cy="209.691714" rx="146.637423" ry="148.115764"></ellipse>
                <use id="uiteinde" stroke="#979797" mask="url(#mask-2)" stroke-width="8" xlink:href="#path-1"></use>
                <use id="bodymic" stroke="#979797" mask="url(#mask-4)" stroke-width="12" fill="#252425" xlink:href="#path-3"></use>
                <g id="gaasje" transform="translate(4.000000, 70.000000)">
                    <g id="micnetje" transform="translate(175.691722, 10.373418)">
                        <path d="M21.9336759,0.607617891 C21.9336759,0.607617891 7.0901369,0.606524101 3.00760673,2.53758471 C-1.07492344,4.46864532 0.500436223,10.9594897 6.02569785,13.9499935 C11.5509595,16.9404974 3.22947765,19.993573 3.22947765,19.993573 C3.22947765,19.993573 1.5143297,25.1677622 6.60102057,25.0765892 C11.6877114,24.9854161 18.2221683,27.668133 18.2221683,27.668133 C18.2221683,27.668133 25.2082863,32.6152386 25.2497334,35.0535132 C25.2911806,37.4917877 26.1084556,39.5327832 21.1660909,39.6213694 C16.2237262,39.7099555 13.2468547,41.9317135 7.25769507,37.2859272 C1.26853548,32.6401409 1.5226232,40.1816222 1.5226232,40.1816222 L2.05698787,50.3999583 C2.05698787,50.3999583 2.51232294,55.1261782 7.42754714,56.2950573 C12.3427713,57.4639364 19.8304673,68.9509707 19.8304673,68.9509707 C19.8304673,68.9509707 20.5566649,71.4377378 16.7884474,73.4687057 C13.0202298,75.4996736 9.54469381,75.9004513 6.88266785,77.1013878 C4.22064189,78.3023244 2.3616606,81.3156538 2.52400234,84.3698616 C2.68634409,87.4240694 2.3837806,90.4021312 2.59758725,92.5913499 C2.81139391,94.7805687 3.86897522,98.3652922 7.265568,99.8885344 C10.6621608,101.411777 14.5389627,108.123852 14.5389627,108.123852 C14.5389627,108.123852 14.7923881,111.616398 12.6225681,113.602274 C10.4527481,115.58815 4.09683727,123.840401 4.09683727,123.840401 C4.09683727,123.840401 2.81175941,127.35542 3.13994927,130.385678 C3.46813912,133.415935 3.03107178,136.541552 3.03107178,136.541552 C3.03107178,136.541552 3.70223632,140.501167 6.97605104,142.259636 C10.2498658,144.018105 16.0255004,148.732719 16.0255004,148.732719 C16.0255004,148.732719 18.7491829,150.020822 15.351431,154.808008 C11.953679,159.595195 5.16750292,166.741623 5.16750292,166.741623 C5.16750292,166.741623 -0.082290136,173.236842 5.4403871,178.608009 C10.9630643,183.979175 17.6634152,187.615842 17.6634152,187.615842 C17.6634152,187.615842 20.95549,187.373703 19.9316886,192.762987 C18.9078872,198.152271 11.468556,202.954634 11.468556,202.954634 C11.468556,202.954634 4.84736273,202.993368 3.54429567,207.753215 C2.24122861,212.513063 4.93014284,222.910208 4.93014284,222.910208 C4.93014284,222.910208 7.39765939,225.091349 9.56440566,221.747061 C11.7311519,218.402772 15.719046,218.86028 15.719046,218.86028 L25.0179121,218.645983 C25.0179121,218.645983 29.9375245,218.731865 28.409179,223.19242 C26.8808335,227.652974 21.8953573,232.557066 21.8953573,232.557066 C21.8953573,232.557066 17.607362,233.83137 14.0939154,233.295622 C10.5804688,232.759873 5.57912645,233.775383 5.57912645,233.775383 C5.57912645,233.775383 2.45541618,238.031506 6.36436095,239.571646 C10.2733057,241.111786 12.9014999,245.0556 10.5033673,246.465555 C8.10523476,247.875511 2.47939985,254.963721 4.90535847,255.92945 C7.33131709,256.895179 12.6804496,259.201566 23.4147264,255.17643 C34.1490033,251.151294 41.8260007,248.096618 41.8260007,248.096618 C41.8260007,248.096618 47.7475525,245.9885 46.3827649,239.528493 C45.0179773,233.068487 49.081506,231.367874 43.5239355,231.467487 C37.9663649,231.5671 35.3052259,233.042435 35.3052259,233.042435 C35.3052259,233.042435 30.5833258,232.157546 33.5514802,228.364593 C36.5196345,224.571639 46.8714577,215.776612 46.8714577,215.776612 C46.8714577,215.776612 48.9065014,208.478915 46.6650152,204.187985 C44.423529,199.897056 42.236156,203.859714 42.236156,203.859714 C42.236156,203.859714 37.6599471,210.5396 31.5428132,209.606013 C25.4256794,208.672425 24.2904579,207.384199 24.2904579,207.384199 C24.2904579,207.384199 22.1311797,205.819503 25.0815957,202.275201 C28.0320117,198.730899 31.5064431,194.120368 31.5064431,194.120368 C31.5064431,194.120368 39.1444367,191.845978 42.3755167,192.856809 C45.6065966,193.867639 46.2858826,188.786159 46.2858826,188.786159 C46.2858826,188.786159 48.6054781,184.84948 44.6554769,183.513619 C40.7054757,182.177759 42.0654564,178.639852 42.0654564,178.639852 L45.6910404,171.848869 C45.6910404,171.848869 48.1642632,162.851471 46.1615047,158.571571 C44.1587461,154.29167 42.9690681,154.044249 42.9690681,154.044249 L38.4043756,150.402755 C38.4043756,150.402755 36.8445907,149.153889 38.448732,146.470003 C40.0528734,143.786117 45.5927593,137.248844 45.5927593,137.248844 C45.5927593,137.248844 47.8227383,135.26926 46.7206663,130.951104 C45.6185944,126.632948 46.2373994,123.619736 46.2373994,123.619736 C46.2373994,123.619736 45.2047072,121.027903 41.9079597,118.967081 C38.6112122,116.90626 36.3512701,113.394115 36.3512701,113.394115 C36.3512701,113.394115 36.1137076,110.344091 40.3561783,108.964579 C44.5986489,107.585067 46.1851479,100.003418 46.1851479,100.003418 C46.1851479,100.003418 46.269403,89.8803086 45.5956725,87.7651023 C44.9219419,85.649896 41.4230407,82.0987248 41.4230407,82.0987248 C41.4230407,82.0987248 37.2330857,79.7965077 40.4003079,76.8544141 C43.5675301,73.9123205 46.3882762,71.7514889 45.4997627,69.5618901 C44.6112491,67.3722913 43.1703042,64.9368894 40.1174759,64.9916078 C37.0646476,65.0463262 32.1878677,67.5456393 28.2112702,64.383469 C24.2346727,61.2212988 20.4590903,55.2955017 20.4590903,55.2955017 C20.4590903,55.2955017 19.1923631,50.0217038 21.1112174,50.022872 C23.0300717,50.0240401 32.1201647,48.286785 32.1201647,48.286785 C32.1201647,48.286785 36.9126586,48.9413517 37.7344133,52.3392323 C38.556168,55.7371129 42.0253434,56.6563619 42.0253434,56.6563619 C42.0253434,56.6563619 46.2672418,56.911443 44.9192622,52.0290209 C43.5712826,47.1465988 45.1456004,43.1988976 45.1456004,43.1988976 C45.1456004,43.1988976 44.0460557,40.7958045 40.7576899,38.7701117 C37.4693241,36.7444188 31.2991679,32.9285985 31.2991679,32.9285985 C31.2991679,32.9285985 28.3227005,26.4192375 33.1887709,26.3320188 C38.0548414,26.2448002 39.5318656,26.9119509 39.5318656,26.9119509 C39.5318656,26.9119509 44.1817838,27.9910734 43.3996423,23.0072756 C42.6175008,18.0234779 41.8005318,13.0341538 37.7015223,10.8130038 C33.6025128,8.59185384 26.1216324,2.76686945 26.1216324,2.76686945 L21.9336759,0.607617891" id="Path-2" fill="#252425"></path>
                        <path d="M20.6948262,9.57494737 C20.6948262,9.57494737 14.6878119,9.37197723 15.903395,12.3877542 C17.1189782,15.4035312 22.2473081,19.4782654 22.2473081,19.4782654 C22.2473081,19.4782654 31.4732145,22.9559335 32.9012059,21.1088225 C34.3291973,19.2617116 33.182665,15.5056507 32.2386748,15.508736 C31.2946846,15.5118213 26.6244698,10.5921738 26.6244698,10.5921738 C26.6244698,10.5921738 24.3148999,9.80907495 23.1992628,9.82907145 C22.0836257,9.84906795 20.6948262,9.57494737 20.6948262,9.57494737" id="Path-6" fill="#979797"></path>
                        <path d="M21.8721346,82.2450325 C21.8721346,82.2450325 14.2432483,84.3688373 16.1460121,88.9347925 C18.0487758,93.5007476 23.319788,97.8668224 23.319788,97.8668224 C23.319788,97.8668224 26.6932547,102.561736 35.3609052,98.9809803 C44.0285556,95.4002242 38.7861597,89.2297918 38.7861597,89.2297918 C38.7861597,89.2297918 31.8366856,80.3467548 28.165159,80.4125626 C24.4936325,80.4783705 21.8721346,82.2450325 21.8721346,82.2450325" id="Path-8" fill="#979797"></path>
                        <path d="M18.8313024,121.744342 L14.717778,127.091028 C14.717778,127.091028 10.7949719,129.652497 14.92626,132.353272 C19.0575481,135.054047 25.1852746,138.360778 25.1852746,138.360778 C25.1852746,138.360778 30.9380111,138.656196 33.8864898,135.037511 C36.8349685,131.418826 41.6003551,128.495809 37.6440419,125.920245 C33.6877287,123.344682 30.1057403,120.307146 30.1057403,120.307146 C30.1057403,120.307146 25.508623,116.602353 22.6808133,118.546634 C19.8530035,120.490914 18.8313024,121.744342 18.8313024,121.744342" id="Path-41" fill="#979797"></path>
                        <path d="M22.0906921,158.049541 L16.6853774,165.363475 C16.6853774,165.363475 13.8806175,171.596105 20.2482347,172.566616 C26.6158519,173.537127 27.0847837,176.960499 31.3247492,172.915344 C35.5647146,168.87019 38.7564649,165.104006 38.7564649,165.104006 C38.7564649,165.104006 41.4821659,161.915943 36.2458969,158.146578 C31.0096278,154.377213 28.3746027,154.729087 28.3746027,154.729087 C28.3746027,154.729087 25.2468145,153.580844 23.6687533,155.815192 C22.0906921,158.049541 22.0906921,158.049541 22.0906921,158.049541" id="Path-44" fill="#979797"></path>
                        <path d="M25.8625559,236.928856 C25.8625559,236.928856 20.5158476,236.033935 17.8284383,240.604998 C15.141029,245.176061 16.2412981,246.488325 16.2412981,246.488325 C16.2412981,246.488325 17.9524877,248.166547 23.8363228,245.376532 C29.7201578,242.586518 33.539739,240.887838 33.539739,240.887838 C33.539739,240.887838 37.9048974,237.136118 34.2779308,235.941871 C30.6509641,234.747623 28.5155254,235.530566 28.5155254,235.530566 L25.8625559,236.928856" id="Path-45" fill="#979797"></path>
                    </g>
                    <g id="micnetje2" transform="translate(62.579129, 140.000744) rotate(-1.000000) translate(-62.579129, -140.000744) translate(2.579129, 2.000744)">
                        <path d="M118.803274,26.475215 C118.803274,26.475215 119.363953,19.1875399 112.6435,19.1875399 C105.923046,19.1875399 102.787641,17.0302795 102.787641,15.6136958 C102.787641,14.1971122 106.190153,10.4646191 109.416826,9.74655905 C112.6435,9.02849902 117.021051,7.56889866 117.021051,7.56889866 C117.021051,7.56889866 120.296506,2.67953781 117.685337,1.48750356 C115.074168,0.295469301 111.180974,0.411778645 110.2989,2.01717522 C109.416826,3.62257179 99.6008075,11.3623306 94.9950593,11.3623306 C90.3893111,11.3623306 76.691592,14.216551 76.691592,14.216551 C76.691592,14.216551 69.6683288,17.1854425 72.5949758,19.1561487 C75.5216227,21.1268549 77.3903555,22.6369238 75.4176127,24.5560694 C73.4448699,26.475215 69.5993719,30.5577407 65.1527993,32.1664136 C60.7062267,33.7750865 54.586874,34.4183372 51.6320696,33.2923754 C48.6772652,32.1664136 44.1749524,38.2751114 44.1749524,38.2751114 L40.7742266,42.6610111 C40.7742266,42.6610111 38.3452188,46.4724629 42.8774129,45.5545473 C47.409607,44.6366318 49.55819,45.3328497 47.409607,48.3033794 C45.261024,51.2739091 39.3703784,58.0384169 39.3703784,58.0384169 C39.3703784,58.0384169 33.8067036,59.3855302 28.492423,59.3855302 C23.1781424,59.3855302 21.966799,65.976393 21.966799,65.976393 C21.966799,65.976393 21.0105963,69.4028772 23.4867246,70.025924 C25.962853,70.6489707 27.490249,72.9593221 24.728524,75.6104106 C21.966799,78.2614992 17.6581403,83.9748544 17.6581403,83.9748544 C17.6581403,83.9748544 15.546909,85.6146523 12.8564395,85.6146523 C10.16597,85.6146523 9.73671314,89.3911566 9.73671314,89.3911566 C9.73671314,89.3911566 10.6595867,98.0493771 8.65638793,101.91598 C6.65318917,105.782583 6.66238342,105.942577 2.82722893,110.822655 C-1.00792557,115.702733 4.47357559,122.766478 4.47357559,122.766478 C4.47357559,122.766478 9.34136009,125.89154 4.88386931,130.493131 C0.42637854,135.094722 0.0476900758,138.726522 0.0476900758,138.726522 C0.0476900758,138.726522 -0.561429458,146.426965 3.18178247,148.348527 C6.92499439,150.270088 9.59017967,154.912087 7.60077229,156.338378 C5.61136491,157.764669 2.047441,162.516424 2.047441,162.516424 C2.047441,162.516424 1.61013914,168.735425 5.13326354,168.735425 C8.65638793,168.735425 11.0032221,165.85827 11.0032221,165.85827 C11.0032221,165.85827 14.5470335,165.323138 16.9806385,168.223227 C19.4142434,171.123316 21.4904216,176.420578 21.4904216,176.420578 C21.4904216,176.420578 21.0220891,182.70729 13.0776763,179.90549 C5.13326354,177.103691 9.43789979,188.376414 9.43789979,188.376414 L19.8446496,196.904674 C19.8446496,196.904674 27.8086001,203.880505 24.8876996,211.491941 C21.966799,219.103377 29.7554841,219.3147 29.7554841,219.3147 C29.7554841,219.3147 34.4738619,217.747527 36.1903148,220.449945 C37.9067676,223.152362 47.902649,231.001332 47.902649,231.001332 C47.902649,231.001332 49.0731929,235.407435 44.5220356,235.407435 C39.9708784,235.407435 46.1011493,241.683771 46.1011493,241.683771 C46.1011493,241.683771 52.2153303,244.793545 58.2375687,244.793545 C64.2598071,244.793545 70.628554,253.553877 70.628554,253.553877 C70.628554,253.553877 75.8635342,257.500204 75.8635342,260.279615 C75.8635342,263.059026 85.2342061,265.862464 85.2342061,265.862464 C85.2342061,265.862464 97.417746,266.616017 103.858323,270.838101 C110.2989,275.060185 114.642037,275.569652 114.642037,275.569652 C114.642037,275.569652 119.123089,272.38507 107.725658,267.344998 C96.3282266,262.304927 112.29233,259.735746 112.29233,259.735746 C112.29233,259.735746 117.299178,259.470364 117.160115,255.834196 C117.021051,252.198027 117.412957,246.178882 117.412957,246.178882 C117.412957,246.178882 115.112094,243.573116 108.238812,244.875999 C101.36553,246.178882 95.8133482,239.510479 95.8133482,239.510479 C95.8133482,239.510479 87.0397283,233.775828 91.0173938,230.450364 C94.9950593,227.1249 102.593538,225.464352 102.593538,225.464352 C102.593538,225.464352 108.73013,227.82221 109.889756,229.411771 C111.049381,231.001332 118.438116,232.434721 117.729584,226.442333 C117.021051,220.449945 114.09383,217.028921 114.09383,217.028921 C114.09383,217.028921 111.592417,213.929523 114.661001,210.972098 C117.729584,208.014674 117.527885,196.977299 117.527885,196.977299 L117.378478,182.490506 C117.378478,182.490506 118.611658,178.087133 114.250707,175.649005 C109.889756,173.210877 108.816901,171.237441 108.816901,171.237441 C108.816901,171.237441 104.753039,169.493893 107.822772,166.005159 C110.892504,162.516424 116.063699,156.181661 116.063699,156.181661 C116.063699,156.181661 118.503625,155.197127 117.762338,144.892556 C117.021051,134.587985 117.716367,131.788916 117.716367,131.788916 C117.716367,131.788916 115.733281,124.818546 111.778026,123.792512 C107.822772,122.766478 107.075164,117.764084 107.075164,117.764084 C107.075164,117.764084 107.087806,113.308289 111.575753,109.865423 C116.063699,106.422558 118.790946,101.99625 118.276642,97.9074032 C117.762338,93.8185564 117.483063,75.5039302 117.483063,75.5039302 C117.483063,75.5039302 116.929109,70.8133328 114.252431,68.8901332 C111.575753,66.9669336 113.074991,63.8964762 113.074991,63.8964762 L118.334106,57.281041 C118.334106,57.281041 120.980903,53.2249574 117.027947,51.723857 C113.074991,50.2227566 108.639337,52.3834893 108.639337,52.3834893 C108.639337,52.3834893 103.336549,57.9586931 97.1769714,54.841275 C91.0173938,51.723857 89.1630271,48.6741496 89.1630271,48.6741496 C89.1630271,48.6741496 87.6201158,43.5761964 91.3075876,43.1186038 C94.9950593,42.6610111 105.868418,33.5943429 105.868418,33.5943429 C105.868418,33.5943429 109.033541,33.0717699 111.642986,34.7574363 C114.252431,36.4431027 119.707498,35.389766 118.99207,33.0865133 C118.276642,30.7832607 118.803274,26.475215 118.803274,26.475215" id="Path-46" fill="#252425"></path>
                        <path d="M92.3248876,14.6348593 C92.3248876,14.6348593 88.4816705,12.5110042 81.7648055,16.096249 C75.0479405,19.6814938 71.4739657,26.3543085 71.4739657,26.3543085 C71.4739657,26.3543085 68.8813094,31.9340719 75.7621339,31.2468468 C82.6429584,30.5596216 89.4529076,26.2320606 89.4529076,26.2320606 C89.4529076,26.2320606 96.3811201,22.6305298 96.1280609,20.3426135 C95.8750018,18.0546972 92.3248876,14.6348593 92.3248876,14.6348593" id="Path-47" fill="#979797"></path>
                        <path d="M53.3242734,41.8988168 L46.8122192,49.3466673 C46.8122192,49.3466673 42.7106032,52.2466474 45.8534104,54.5008474 C48.9962175,56.7550474 55.0845616,56.7402922 59.4718452,51.1275455 C63.8591287,45.5147988 65.3108092,43.5158509 65.3108092,43.5158509 C65.3108092,43.5158509 66.2686352,38.9926242 63.4061667,37.960644 C60.5436981,36.9286638 57.5436204,36.3898234 56.3050427,39.1443201 C55.0664651,41.8988168 53.3242734,41.8988168 53.3242734,41.8988168" id="Path-48" fill="#979797"></path>
                        <path d="M69.0752183,52.2199787 L62.9083286,59.1583828 C62.9083286,59.1583828 57.5205168,64.7830858 60.9848126,67.5487329 C64.4491084,70.31438 67.5614128,72.1915229 67.5614128,72.1915229 C67.5614128,72.1915229 70.8917849,75.7903763 76.576616,70.2904674 C82.2614471,64.7905585 83.8358048,61.7783122 83.8358048,61.7783122 C83.8358048,61.7783122 89.3507752,56.017606 83.7249235,53.3341586 C78.0990718,50.6507112 78.9664627,49.4162207 78.9664627,49.4162207 C78.9664627,49.4162207 76.9289198,47.5091871 72.2451663,49.8645829 C67.5614128,52.2199787 69.0752183,52.2199787 69.0752183,52.2199787" id="Path-49" fill="#979797"></path>
                        <path d="M110.038393,78.9965224 L101.932259,71.0762052 C101.932259,71.0762052 98.5633537,68.2265793 94.3262711,71.3332662 C90.0891885,74.439953 82.6499158,81.7479714 82.6499158,81.7479714 C82.6499158,81.7479714 77.0059771,84.6137527 82.2661563,89.0174162 C87.5263355,93.4210797 91.6918564,96.7636194 91.6918564,96.7636194 C91.6918564,96.7636194 97.4513948,100.458871 102.573955,96.0701526 C107.696516,91.6814346 111.664652,87.5206339 111.664652,87.5206339 C111.664652,87.5206339 113.998665,83.0706397 112.018529,81.033581 C110.038393,78.9965224 110.038393,78.9965224 110.038393,78.9965224" id="Path-50" fill="#979797"></path>
                        <path d="M33.1204184,65.110988 C33.1204184,65.110988 29.9331698,64.3696959 27.3081917,67.6778612 C24.6832137,70.9860266 19.7281548,76.0286061 19.7281548,76.0286061 C19.7281548,76.0286061 18.0523524,82.3833921 21.6367293,82.3833921 C25.2211061,82.3833921 27.5268088,83.6642133 30.7761825,80.2671228 C34.0255561,76.8700324 36.674126,73.2808934 36.674126,73.2808934 C36.674126,73.2808934 38.4741783,69.0012768 36.922626,67.0561324 C35.3710736,65.110988 33.1204184,65.110988 33.1204184,65.110988" id="Path-51" fill="#979797"></path>
                        <path d="M10.6444217,98.6845682 C10.6444217,98.6845682 4.58526781,106.527917 8.44566842,110.53478 C12.306069,114.541643 15.0647338,106.86643 15.0647338,106.86643 L17.7368954,99.5902597 C17.7368954,99.5902597 19.2774382,94.8988972 14.96093,94.8988972 C10.6444217,94.8988972 11.2664582,96.2245546 11.2664582,96.2245546 L10.6444217,98.6845682" id="Path-52" fill="#979797"></path>
                        <path d="M51.9154589,79.0378257 C51.9154589,79.0378257 48.272889,74.4563119 43.6316007,77.9378439 C38.9903124,81.419376 35.7692489,86.8124252 35.7692489,86.8124252 C35.7692489,86.8124252 32.3673151,92.3354995 36.6146208,95.6765447 C40.8619265,99.0175899 42.6297367,100.251333 42.6297367,100.251333 C42.6297367,100.251333 44.7758017,102.672233 50.3576155,95.6578629 C55.9394292,88.6434926 59.8438677,85.1004291 55.8796633,80.9403757 C51.9154589,76.7803224 51.9154589,79.0378257 51.9154589,79.0378257" id="Path-53" fill="#979797"></path>
                        <path d="M63.1360496,98.1473546 L54.9552088,106.529485 C54.9552088,106.529485 48.2575042,110.717187 53.9981692,116.01608 C59.7388342,121.314974 62.9591113,122.787096 62.9591113,122.787096 C62.9591113,122.787096 67.897656,127.056251 71.9074712,121.536166 C75.9172863,116.01608 79.4033641,112.608528 79.4033641,112.608528 C79.4033641,112.608528 83.5154103,108.529927 77.1739415,103.338641 C70.8324727,98.1473546 72.5491674,99.8675707 72.5491674,99.8675707 C72.5491674,99.8675707 68.6447288,95.0984921 65.8019201,96.0056781 C62.9591113,96.9128642 63.1360496,98.1473546 63.1360496,98.1473546" id="Path-54" fill="#979797"></path>
                        <path d="M23.3875208,107.142433 C23.3875208,107.142433 19.1583022,108.697502 17.8041343,112.560889 C16.4499665,116.424276 17.9244524,119.615867 17.9244524,119.615867 L22.1961363,123.610027 C22.1961363,123.610027 27.2259025,124.592912 30.2535134,120.00669 C33.2811244,115.420467 34.224009,113.702718 34.224009,113.702718 C34.224009,113.702718 33.01752,109.585259 29.3727539,107.51009 C25.7279877,105.43492 23.3875208,107.142433 23.3875208,107.142433" id="Path-55" fill="#979797"></path>
                        <path d="M13.5086301,129.812444 C13.5086301,129.812444 9.6696558,126.720275 7.96399846,130.624536 C6.25834112,134.528797 7.5349157,140.27362 7.5349157,140.27362 C7.5349157,140.27362 9.53303244,146.869076 14.3867198,143.571348 C19.2404073,140.27362 17.9780643,137.510073 17.9780643,137.510073 L16.7271066,131.87344 L13.5086301,129.812444" id="Path-56" fill="#979797"></path>
                        <path d="M39.3575376,125.511754 L33.4798865,133.383161 C33.4798865,133.383161 30.8093266,138.280731 34.0342073,140.757577 C37.259088,143.234423 43.0456569,147.736427 43.0456569,147.736427 C43.0456569,147.736427 47.5570743,148.844009 51.1975177,144.163493 C54.8379612,139.482978 59.4952525,137.010865 53.4062622,132.136286 C47.3172718,127.261707 45.6763682,125.749769 45.6763682,125.749769 C45.6763682,125.749769 43.6296528,121.84722 41.4935952,123.135751 C39.3575376,124.424281 39.3575376,125.511754 39.3575376,125.511754" id="Path-57" fill="#979797"></path>
                        <path d="M86.254111,126.0231 L77.7744353,134.507692 C77.7744353,134.507692 73.4332452,140.238318 78.3109615,143.981878 C83.1886777,147.725439 88.0550907,150.058361 88.0550907,150.058361 C88.0550907,150.058361 95.7631333,154.685752 101.591074,146.696461 C107.419014,138.707169 110.9524,136.143888 104.670824,131.083494 C98.3892481,126.0231 97.0328617,124.696957 97.0328617,124.696957 C97.0328617,124.696957 92.549251,121.814101 89.401681,123.255529 C86.254111,124.696957 86.254111,126.0231 86.254111,126.0231" id="Path-58" fill="#979797"></path>
                        <path d="M88.370584,176.700138 L81.9985821,183.933057 C81.9985821,183.933057 77.8744138,189.360074 81.5215862,191.395832 C85.1687585,193.43159 94.138994,201.050466 94.138994,201.050466 C94.138994,201.050466 99.6218093,204.60069 105.52209,198.981769 C111.422371,193.362848 111.224188,191.31993 111.224188,191.31993 C111.224188,191.31993 113.75837,188.973402 106.730781,184.56677 C99.7031925,180.160139 96.8788946,176.546901 96.8788946,176.546901 C96.8788946,176.546901 94.8232156,172.393755 91.1270626,174.470328 C87.4309097,176.546901 88.370584,176.700138 88.370584,176.700138" id="Path-59" fill="#979797"></path>
                        <path d="M29.1088681,150.769541 C29.1088681,150.769541 23.2146156,144.80906 20.7482529,147.789301 C18.2818903,150.769541 15.6859174,154.029045 18.2170852,157.504083 C20.7482529,160.979121 22.8943577,165.027007 22.8943577,165.027007 C22.8943577,165.027007 28.7682644,167.881937 32.5834779,163.546911 C36.3986915,159.211886 33.3626466,154.309025 33.3626466,154.309025 L29.1088681,150.769541" id="Path-60" fill="#979797"></path>
                        <path d="M61.9457827,149.590421 L56.3326036,155.583125 C56.3326036,155.583125 52.7178338,159.479206 56.1683301,163.431856 C59.6188265,167.384506 65.6404286,172.600285 65.6404286,172.600285 C65.6404286,172.600285 69.3961118,175.871246 75.9873962,169.651551 C82.5786807,163.431856 84.3894565,158.75527 80.1884264,157.169198 C75.9873962,155.583125 70.4962919,149.76872 70.4962919,149.76872 C70.4962919,149.76872 68.4941149,145.851157 65.2199488,147.22456 C61.9457827,148.597962 61.9457827,149.590421 61.9457827,149.590421" id="Path-61" fill="#979797"></path>
                        <path d="M48.9639835,172.616875 C48.9639835,172.616875 43.2174264,167.101783 40.6478277,169.859329 C38.078229,172.616875 32.3746242,177.589194 35.1431596,181.855478 C37.9116949,186.121762 44.7697353,191.222972 44.7697353,191.222972 C44.7697353,191.222972 49.166688,195.20498 54.024812,190.235526 C58.882936,185.266071 56.8611666,178.089004 55.4429893,178.089004 C54.024812,178.089004 48.9639835,172.616875 48.9639835,172.616875" id="Path-62" fill="#979797"></path>
                        <path d="M32.0880123,191.081512 C32.0880123,191.081512 26.8840098,184.246722 23.0130337,187.138887 C19.1420575,190.031052 22.6302313,197.188786 22.6302313,197.188786 L29.4430588,203.158576 C29.4430588,203.158576 32.962128,207.593134 36.0870916,202.39096 C39.2120551,197.188786 36.0712671,195.285499 36.0712671,195.285499 L32.0880123,191.081512" id="Path-63" fill="#979797"></path>
                        <path d="M78.1519869,201.555905 C78.1519869,201.555905 69.9790052,194.791289 65.9904756,197.764369 C62.001946,200.737449 60.0977302,204.365724 60.0977302,204.365724 C60.0977302,204.365724 58.3299066,206.722276 62.1601911,209.827112 C65.9904756,212.931947 72.7271948,219.696563 72.7271948,219.696563 C72.7271948,219.696563 74.8996737,223.565434 80.657534,217.204675 C86.4153943,210.843916 86.3249686,207.927405 83.8925156,205.696879 C81.4600627,203.466353 78.1519869,201.555905 78.1519869,201.555905" id="Path-64" fill="#979797"></path>
                        <path d="M53.4254737,212.048761 C53.4254737,212.048761 48.9727585,210.144759 46.5131778,213.202334 C44.0535972,216.259909 43.6873217,220.197521 46.3255444,222.103672 C48.9637671,224.009824 56.5820863,230.419274 56.5820863,230.419274 C56.5820863,230.419274 61.1131705,233.110943 65.360167,229.09886 C69.6071636,225.086777 63.5102067,221.400502 63.5102067,221.400502 L53.4254737,212.048761" id="Path-65" fill="#979797"></path>
                        <path d="M95.0625826,247.051018 L84.4043996,238.451857 C84.4043996,238.451857 80.8325821,236.39963 76.4868707,238.100271 C72.1411594,239.800913 71.8065841,241.679854 71.8065841,241.679854 C71.8065841,241.679854 75.0664327,249.252186 81.2726541,251.459798 C87.4788755,253.667411 86.9830409,258.16355 92.9873114,254.811674 C98.991582,251.459798 95.0625826,247.051018 95.0625826,247.051018" id="Path-66" fill="#979797"></path>
                    </g>
                </g>
                <path d="M236.107769,89.855514 C236.033115,85.5354231 239.439145,81.9721787 243.70843,81.8969067 L270.818039,81.4189361 C275.090423,81.3436096 278.614337,84.7813406 278.689049,89.1047617 L282.84447,329.568711 C282.919125,333.888802 279.513094,337.452046 275.243809,337.527318 L248.1342,338.005289 C243.861816,338.080615 240.337902,334.642884 240.26319,330.319463 L236.107769,89.855514" id="rechthoek1" fill="#979797"></path>
                <path d="M129.546398,56.4326934 C129.471791,52.1154195 132.877862,48.5544586 137.147147,48.4791866 L164.256756,48.001216 C168.52914,47.9258895 172.052983,51.359538 172.127678,55.6819412 L177.534831,368.580588 C177.609437,372.897862 174.203367,376.458823 169.934082,376.534095 L142.824473,377.012065 C138.552089,377.087392 135.028246,373.653743 134.953551,369.33134 L129.546398,56.4326934" id="rechthoek2" fill="#252425"></path>
                <rect id="vallenstreepje" fill="#979797" x="682" y="24" width="7.09026467" height="42.4507412" rx="3.54513233"></rect>
                <rect id="vallenstreepje" fill="#979797" x="701" y="0" width="7.09026467" height="42.4507412" rx="3.54513233"></rect>
                <rect id="vallenstreepje" fill="#979797" x="661" y="7" width="7.09026467" height="42.4507412" rx="3.54513233"></rect>
            </g>
        </g>
    </g>
</svg>