<?xml version="1.0" encoding="UTF-8"?>
<svg width="1192px" height="795px" viewBox="0 0 1192 795" version="1.1" xmlns="http://www.w3.org/2000/svg" xmlns:xlink="http://www.w3.org/1999/xlink">
    <!-- Generator: Sketch 40.1 (33804) - http://www.bohemiancoding.com/sketch -->
    <title>platenspeler</title>
    <desc>Created with Sketch.</desc>
    <defs></defs>
    <g id="Page-1" stroke="none" stroke-width="1" fill="none" fill-rule="evenodd">
        <g id="1.-" transform="translate(-112.000000, -114.000000)">
            <g id="platenspeler" transform="translate(-113.000000, -112.000000)">
                <rect id="anchorpoint" fill="#D8D8D8" x="621" y="622" width="1" height="1"></rect>
                <g id="plaat" transform="translate(624.086697, 623.579888) rotate(-156.000000) translate(-624.086697, -623.579888) translate(151.086697, 151.579888)">
                    <ellipse id="grijsrondjedraai" fill="#979797" transform="translate(472.904029, 472.144659) rotate(-1542.000000) translate(-472.904029, -472.144659) " cx="472.904029" cy="472.144659" rx="397.186035" ry="398.568924"></ellipse>
                    <ellipse id="grijsrondjemetoutline" stroke="#252425" stroke-width="4" fill="#979797" transform="translate(472.904029, 471.487681) rotate(-1542.000000) translate(-472.904029, -471.487681) " cx="472.904029" cy="471.487681" rx="382.0542" ry="383.384405"></ellipse>
                    <circle id="Oval-2" fill="#252425" transform="translate(474.648929, 471.487681) rotate(-1114.000000) translate(-474.648929, -471.487681) " cx="474.648929" cy="471.487681" r="152"></circle>
                </g>
                <g id="buttons" transform="translate(1364.000000, 852.000000)">
                    <ellipse id="buttononder" fill="#979797" cx="26.3173782" cy="109.695059" rx="26.3173782" ry="26.3530227"></ellipse>
                    <ellipse id="buttonboven" fill="#979797" cx="26.3173782" cy="26.3530227" rx="26.3173782" ry="26.3530227"></ellipse>
                    <path d="M21.9763514,98.528733 C19.7803649,97.2886354 18,98.3045379 18,100.796001 L18,119.181904 C18,121.675855 19.7803649,122.69044 21.9763514,121.451513 L38.2999054,112.235367 C40.4966351,110.994831 40.4966351,108.984977 38.2999054,107.744733 L21.9763514,98.528733 L21.9763514,98.528733 Z" id="play" fill="#FFFFFF"></path>
                    <g id="pause" transform="translate(17.000000, 99.000000)" fill="#FFFFFF">
                        <path d="M2.26355769,0.00837053571 C3.53680889,0.00837053571 4.59785156,0.800647474 4.59785156,1.7513798 L4.59785156,21.3998479 C4.59785156,22.3505802 3.53680889,23.1428571 2.26355769,23.1428571 C0.99030649,23.1428571 0,22.3505802 0,21.3998479 L0,1.7513798 C0,0.800647474 0.99030649,0.00837053571 2.26355769,0.00837053571 L2.26355769,0.00837053571 Z" id="Shape"></path>
                        <path d="M16.1278486,0.00837053571 C17.4010998,0.00837053571 18.3914063,0.800647474 18.3914063,1.7513798 L18.3914063,21.3998479 C18.3914063,22.3505802 17.4010998,23.1428571 16.1278486,23.1428571 C14.8545974,23.1428571 13.7935547,22.3505802 13.7935547,21.3998479 L13.7935547,1.7513798 C13.7935547,0.800647474 14.8545974,0.00837053571 16.1278486,0.00837053571 L16.1278486,0.00837053571 Z" id="Shape"></path>
                    </g>
                </g>
                <g id="naald" transform="translate(1104.000000, 339.000000)" fill="#979797">
                    <path d="M145.177557,122.980772 L145.177557,156.02435 C114.670816,160.29715 91.193191,186.531657 91.193191,218.257085 C91.193191,249.446309 113.883914,275.328652 143.636841,280.25443 L143.636841,361.704738 C143.636841,361.704738 140.741244,400.769716 126.928838,428.305246 C119.196312,443.720314 101.580111,481.768584 87.5698869,512.277668 L79.6014953,508.040799 C72.2877089,504.15199 63.2088658,506.925815 59.3221426,514.235678 L51.9734955,528.056473 L28.9487011,518.191441 C27.9310241,517.755414 26.7850763,518.240986 26.3771412,519.270847 L26.7281957,518.384585 C26.3213725,519.411639 26.4648684,520.632996 27.0511862,521.106292 L49.0347756,533.583402 L2.03753495,621.972356 C-1.84747851,629.279004 0.928563762,638.360307 8.24181778,642.248834 L47.0963041,662.90813 C54.4100905,666.79694 63.4889336,664.023115 67.3756568,656.713252 L124.660264,548.976574 C128.545278,541.669926 125.769236,532.588622 118.455982,528.700096 L106.981716,522.599121 L147.56046,434.51209 C147.56046,434.51209 161.904011,416.237335 161.904011,361.704738 C161.904011,315.50523 161.904011,287.943538 161.904011,280.598962 C182.816052,277.950398 200.520287,264.997102 209.782681,246.980198 C214.47045,249.661551 233.984614,262.726518 220.366865,287.902285 C204.971568,316.364289 223.942538,306.310996 223.942538,306.310996 C223.942538,306.310996 239.883478,292.179636 241.884168,273.63301 C243.816497,255.720104 226.615534,238.459073 215.229382,231.874777 C216.196798,227.489995 216.706841,222.933184 216.706841,218.257085 C216.706841,186.065377 192.534026,159.52718 161.372866,155.850238 L161.372866,122.980772 L177.277292,122.980772 C185.56961,122.980772 192.27733,116.263715 192.27733,107.977806 L192.27733,15.0029667 C192.27733,6.721229 185.561584,0 177.277292,0 L129.000038,0 C120.70772,0 114,6.71705698 114,15.0029667 L114,107.977806 C114,116.259543 120.715746,122.980772 129.000038,122.980772 L145.177557,122.980772 Z" id="Combined-Shape"></path>
                </g>
            </g>
        </g>
    </g>
</svg>