<?xml version="1.0" encoding="UTF-8"?>
<svg width="1338px" height="949px" viewBox="0 0 1338 949" version="1.1" xmlns="http://www.w3.org/2000/svg" xmlns:xlink="http://www.w3.org/1999/xlink">
    <!-- Generator: Sketch 40.1 (33804) - http://www.bohemiancoding.com/sketch -->
    <title>spikkels</title>
    <desc>Created with Sketch.</desc>
    <defs></defs>
    <g id="Page-1" stroke="none" stroke-width="1" fill="none" fill-rule="evenodd">
        <g id="Overlay-voorbeeld-2" transform="translate(-51.000000, -38.000000)">
            <g id="spikkels" transform="translate(51.000000, 38.000000)">
                <ellipse id="Oval" fill="#F6F443" cx="36.3023256" cy="87.1213115" rx="2.0744186" ry="2.07431694"></ellipse>
                <ellipse id="Oval-Copy" fill="#D8D8D8" cx="302.865116" cy="192.911475" rx="2.0744186" ry="2.07431694"></ellipse>
                <ellipse id="Oval" fill="#F6F443" cx="1281.9907" cy="85.0469945" rx="2.0744186" ry="2.07431694"></ellipse>
                <ellipse id="Oval" fill="#F6F443" cx="726.046512" cy="120.310383" rx="2.0744186" ry="2.07431694"></ellipse>
                <ellipse id="Oval" fill="#D8D8D8" cx="522.753488" cy="652.372678" rx="2.0744186" ry="2.07431694"></ellipse>
                <ellipse id="Oval-Copy-16" fill="#D8D8D8" cx="526.902326" cy="509.244809" rx="2.0744186" ry="2.07431694"></ellipse>
                <ellipse id="Oval-Copy-13" fill="#F6F443" cx="458.446512" cy="894.030601" rx="2.0744186" ry="2.07431694"></ellipse>
                <ellipse id="Oval-Copy-5" fill="#D8D8D8" cx="990.534884" cy="766.460109" rx="2.0744186" ry="2.07431694"></ellipse>
                <ellipse id="Oval-Copy-12" fill="#F6F443" cx="821.469767" cy="946.925683" rx="2.0744186" ry="2.07431694"></ellipse>
                <ellipse id="Oval-Copy-11" fill="#F6F443" cx="1231.16744" cy="894.030601" rx="2.0744186" ry="2.07431694"></ellipse>
                <ellipse id="Oval-Copy-2" fill="#D8D8D8" cx="730.195349" cy="369.228415" rx="2.0744186" ry="2.07431694"></ellipse>
                <ellipse id="Oval-Copy-23" fill="#D8D8D8" cx="264.488372" cy="648.224044" rx="2.0744186" ry="2.07431694"></ellipse>
                <ellipse id="Oval-Copy-22" fill="#D8D8D8" cx="75.7162791" cy="281.069945" rx="2.0744186" ry="2.07431694"></ellipse>
                <ellipse id="Oval-Copy-21" fill="#D8D8D8" cx="307.013953" cy="43.5606557" rx="2.0744186" ry="2.07431694"></ellipse>
                <ellipse id="Oval-Copy-20" fill="#D8D8D8" cx="953.195349" cy="2.07431694" rx="2.0744186" ry="2.07431694"></ellipse>
                <ellipse id="Oval-Copy-10" fill="#F6F443" cx="825.618605" cy="546.582514" rx="2.0744186" ry="2.07431694"></ellipse>
                <ellipse id="Oval-Copy-17" fill="#D8D8D8" cx="1040.32093" cy="403.454645" rx="2.0744186" ry="2.07431694"></ellipse>
                <ellipse id="Oval-Copy-18" fill="#D8D8D8" cx="1331.77674" cy="285.218579" rx="2.0744186" ry="2.07431694"></ellipse>
                <ellipse id="Oval" fill="#D8D8D8" cx="226.111628" cy="511.319126" rx="4.14883721" ry="4.14863388"></ellipse>
                <ellipse id="Oval-Copy-15" fill="#D8D8D8" cx="82.1488372" cy="900.148634" rx="4.14883721" ry="4.14863388"></ellipse>
                <ellipse id="Oval-Copy-14" fill="#D8D8D8" cx="558.018605" cy="154.536612" rx="4.14883721" ry="4.14863388"></ellipse>
                <ellipse id="Oval-Copy-3" fill="#D8D8D8" cx="1034.09767" cy="199.134426" rx="4.14883721" ry="4.14863388"></ellipse>
                <ellipse id="Oval-Copy-6" fill="#D8D8D8" cx="719.823256" cy="833.87541" rx="4.14883721" ry="4.14863388"></ellipse>
                <ellipse id="Oval" fill="#D8D8D8" cx="416.95814" cy="365.079781" rx="2.0744186" ry="2.07431694"></ellipse>
                <ellipse id="Oval-Copy-9" fill="#D8D8D8" cx="1179.30698" cy="546.582514" rx="2.0744186" ry="2.07431694"></ellipse>
                <ellipse id="Oval-Copy-19" fill="#D8D8D8" cx="1335.92558" cy="732.23388" rx="2.0744186" ry="2.07431694"></ellipse>
                <ellipse id="Oval-Copy-7" fill="#F6F443" cx="2.0744186" cy="770.608743" rx="2.0744186" ry="2.07431694"></ellipse>
                <ellipse id="Oval-Copy-8" fill="#D8D8D8" cx="75.7162791" cy="443.903825" rx="2.0744186" ry="2.07431694"></ellipse>
                <ellipse id="Oval-Copy-4" fill="#D8D8D8" cx="260.339535" cy="806.90929" rx="2.0744186" ry="2.07431694"></ellipse>
            </g>
        </g>
    </g>
</svg>