<?xml version="1.0" encoding="UTF-8"?>
<svg width="1141px" height="675px" viewBox="0 0 1141 675" version="1.1" xmlns="http://www.w3.org/2000/svg" xmlns:xlink="http://www.w3.org/1999/xlink">
    <!-- Generator: Sketch 40.1 (33804) - http://www.bohemiancoding.com/sketch -->
    <title>tv</title>
    <desc>Created with Sketch.</desc>
    <defs></defs>
    <g id="Page-1" stroke="none" stroke-width="1" fill="none" fill-rule="evenodd">
        <g id="5." transform="translate(-150.000000, -220.000000)">
            <g id="tv" transform="translate(150.000000, 220.000000)">
                <g id="bodytv">
                    <rect id="bodytv1" fill="#979797" x="0" y="0" width="1140.03936" height="674.041458" rx="2"></rect>
                    <rect id="bodytv2" fill="#252425" x="13" y="14" width="1110.92244" height="647.244703" rx="6"></rect>
                    <path d="M454.815911,97.3455777 C454.856529,97.1163954 454.877306,97 454.877306,97 L560.350303,97 C668.752934,97 747.680296,107.426548 777.232657,115.844984 C806.785019,124.263419 807.854389,146.186531 812.493806,159.422481 C817.133222,172.658431 830.751008,302.491915 830.751008,302.491915 C830.751008,302.491915 834.945657,428.639789 827.161242,488.218666 C819.376826,547.797543 799.411718,548.152586 787.401025,554.328386 C775.390332,560.504185 721.271052,568.422629 721.271052,568.422629 C721.271052,568.422629 603.787346,579.997693 470.34739,581.286646 C469.671477,581.363905 468.982737,581.402883 468.28097,581.402883 C464.659413,581.402883 461.045034,581.394549 457.439795,581.378303 C453.834546,581.394549 450.220165,581.402883 446.598605,581.402883 C445.897307,581.402883 445.209255,581.363912 444.534268,581.286669 C311.093433,579.997812 193.608523,568.422629 193.608523,568.422629 C193.608523,568.422629 139.489243,560.504185 127.47855,554.328386 C115.467857,548.152586 95.5027488,547.797543 87.7183333,488.218666 C79.9339179,428.639789 84.1285673,302.491915 84.1285673,302.491915 C84.1285673,302.491915 97.7463525,172.658431 102.385769,159.422481 C107.025186,146.186531 108.094556,124.263419 137.646918,115.844984 C167.199279,107.426548 246.126641,97 354.529272,97 C417.243385,97 443.675538,97.1875142 454.815911,97.3455777 Z" id="scherm" fill="#979797"></path>
                    <path d="M32,640.324592 C32,642.538194 33.7871965,644.32537 35.9965854,644.32537 L1099.08965,644.32537 C1101.29231,644.32537 1103.08623,642.531662 1103.08623,640.324592 L1103.08623,36.0007779 C1103.08623,33.787176 1101.29903,32 1099.08965,32 L35.9965854,32 C33.7939171,32 32,33.7937077 32,36.0007779 L32,640.324592 Z M35.9965854,30 L1099.08965,30 C1102.40147,30 1105.08623,32.6804708 1105.08623,36.0007779 L1105.08623,640.324592 C1105.08623,643.63873 1102.39438,646.32537 1099.08965,646.32537 L35.9965854,646.32537 C32.6847628,646.32537 30,643.644899 30,640.324592 L30,36.0007779 C30,32.6866398 32.6918464,30 35.9965854,30 Z" id="outlines2" fill="#979797"></path>
                    <path d="M44,629.590486 C44,631.799614 45.7876301,633.589904 47.9908776,633.589904 L864.721426,633.589904 C866.926119,633.589904 868.712303,631.800752 868.712303,629.590486 L868.712303,49.9994172 C868.712303,47.7902901 866.924673,46 864.721426,46 L47.9908776,46 C45.7861842,46 44,47.7891514 44,49.9994172 L44,629.590486 Z M47.9908776,44 L864.721426,44 C868.030096,44 870.712303,46.6865731 870.712303,49.9994172 L870.712303,629.590486 C870.712303,632.903873 868.032137,635.589904 864.721426,635.589904 L47.9908776,635.589904 C44.6822073,635.589904 42,632.903331 42,629.590486 L42,49.9994172 C42,46.6860306 44.6801659,44 47.9908776,44 Z" id="outines1" fill="#979797"></path>
                </g>
                <g id="speaker" transform="translate(886.000000, 388.000000)" fill="#979797">
                    <rect id="streepje9" x="26" y="210" width="145.094646" height="14.50256" rx="7.25127998"></rect>
                    <rect id="streepje8" x="20" y="183" width="158.130766" height="14.50256" rx="7.25127998"></rect>
                    <rect id="streepje7" x="15" y="157" width="172.46175" height="14.50256" rx="7.25127998"></rect>
                    <rect id="streepje6" x="2" y="129" width="192.619616" height="14.50256" rx="7.25127998"></rect>
                    <rect id="streepje5" x="0" y="103" width="201.578668" height="14.50256" rx="7.25127998"></rect>
                    <rect id="streepje4" x="5" y="76" width="192.619616" height="14.50256" rx="7.25127998"></rect>
                    <rect id="streepje3" x="15" y="49" width="172.46175" height="14.50256" rx="7.25127998"></rect>
                    <rect id="streepje2" x="20" y="25" width="158.130766" height="14.50256" rx="7.25127998"></rect>
                    <rect id="streepje1" x="26" y="0" width="145.094646" height="14.50256" rx="7.25127998"></rect>
                </g>
                <g id="kulbacomerk" transform="translate(886.000000, 321.000000)">
                    <rect id="achtergrond" fill="#979797" x="0" y="1" width="201.578668" height="32.9806218"></rect>
                    <polygon id="lijntje3" fill="#252425" points="186 0.725276402 186 0.225276402 185 0.225276402 185 0.725276402 185 34.1907617 185 34.6907617 186 34.6907617 186 34.1907617"></polygon>
                    <polygon id="lijntje2" fill="#252425" points="168 0.725276402 168 0.225276402 167 0.225276402 167 0.725276402 167 34.1907617 167 34.6907617 168 34.6907617 168 34.1907617"></polygon>
                    <polygon id="lijntje1" fill="#252425" points="150 0.725276402 150 0.225276402 149 0.225276402 149 0.725276402 149 34.1907617 149 34.6907617 150 34.6907617 150 34.1907617"></polygon>
                    <text id="KULBACO" font-family="Plymouth-Serial-ExtraBold-Regular, Plymouth-Serial-ExtraBold" font-size="18" font-weight="600" fill="#252425">
                        <tspan x="34" y="24">KULBACO</tspan>
                    </text>
                </g>
                <g id="bedieningsknoppen" transform="translate(905.000000, 74.000000)">
                    <ellipse id="playknop" fill="#979797" cx="49.2747856" cy="169.348355" rx="49.2747856" ry="45.348355"></ellipse>
                    <ellipse id="draaiknop" fill="#979797" cx="49.2747856" cy="45.348355" rx="49.2747856" ry="45.348355"></ellipse>
                    <path d="M23.6180191,33.06782 C20.1219155,29.8503013 20.1311618,24.6251633 23.62277,21.4117817 L23.62277,21.4117817 C27.1214974,18.1918482 32.8048209,18.201756 36.2880318,21.4074094 L75.8913234,57.8549373 C79.387427,61.0724561 79.3781807,66.2975941 75.8865725,69.5109757 L75.8865725,69.5109757 C72.3878451,72.7309092 66.7045216,72.7210014 63.2213107,69.515348 L23.6180191,33.06782" id="draaiding" fill="#FFFFFF"></path>
                    <path d="M23.62277,21.4117817 C27.1214974,18.1918482 32.8048209,18.201756 36.2880318,21.4074094 L75.8913234,57.8549373 C79.387427,61.0724561 79.3781807,66.2975941 75.8865725,69.5109757 C72.3878451,72.7309092 66.7045216,72.7210014 63.2213107,69.515348 L23.6180191,33.06782 C20.1219155,29.8503013 20.1311618,24.6251633 23.62277,21.4117817 Z" id="draaiding2" fill="#FFFFFF" transform="translate(49.754671, 45.461379) rotate(-82.000000) translate(-49.754671, -45.461379) "></path>
                    <ellipse id="knop4" fill="#979797" cx="150.037985" cy="196.520955" rx="19.0379853" ry="17.5209553"></ellipse>
                    <ellipse id="knop3" fill="#979797" cx="150.037985" cy="134.520955" rx="19.0379853" ry="17.5209553"></ellipse>
                    <ellipse id="knop2" fill="#979797" cx="150.037985" cy="78.5209553" rx="19.0379853" ry="17.5209553"></ellipse>
                    <ellipse id="knop1" fill="#979797" cx="150.037985" cy="17.5209553" rx="19.0379853" ry="17.5209553"></ellipse>
                </g>
                <g id="mtvraps" transform="translate(153.000000, 293.000000)">
                    <path d="M52.8389276,108.052767 C48.8326559,105.232137 45.218419,102.687493 40.5336947,99.3921044 C45.601503,99.93586 49.2694434,100.397477 52.9534948,100.675105 C53.8897236,100.745744 55.2287277,101.097295 55.8248351,100.024569 C56.4460041,98.9074885 55.2627398,98.2306689 54.6397807,97.5226368 C49.3643193,91.5413259 44.0423151,85.5961559 39.359381,78.5191202 C47.2430361,81.7323704 55.123111,84.9439778 63.0067662,88.1555853 C63.2645423,87.9255981 63.5205284,87.6939681 63.7783046,87.4656236 C57.2819866,78.653827 50.7874587,69.8420304 43.229604,59.5944564 C55.1445924,62.3148768 63.7317617,68.8103734 74.3184866,72.5164534 C70.3408568,58.8124998 66.459893,45.4469559 62.1618331,30.6374208 C75.2403945,42.2337057 87.2323576,52.8673298 99.7577743,63.9724276 L99.7577743,35.360373 C106.762484,44.1294576 112.981335,51.917811 119.950243,60.6441838 C121.636528,39.7054889 123.224358,19.9791553 124.812188,0.252821681 C125.103976,0.169040617 125.397555,0.0852595532 125.689343,0.00147848936 C132.350351,18.0899744 139.01136,36.1784704 146.055452,55.3117655 C151.058816,46.1517025 155.560949,37.9165168 160.485548,28.9059455 L160.485548,57.7693434 C173.607072,44.1278149 186.354463,30.8772647 199.101854,17.6283572 C199.52611,17.8484878 199.952157,18.0702613 200.378204,18.2903919 C195.186878,31.2058178 189.991971,44.119601 184.455154,57.8925508 C196.558104,52.2923617 207.751677,47.1127206 218.94704,41.9347223 L219.476913,42.4686212 C211.831343,51.4019825 204.187563,60.333701 195.666628,70.2905055 C205.537308,67.2234615 214.068984,64.5720372 222.600659,61.9222557 C222.808313,62.1489574 223.017756,62.3740164 223.227199,62.6007181 C215.540456,71.4322278 207.851923,80.2637376 199.477777,89.8804895 C206.410883,89.5650785 211.883256,86.7066657 219.032965,85.6109408 C214.387624,90.2303987 210.495919,94.1040408 206.190699,98.3867317 C212.314673,100.251271 218.017972,101.894037 223.651455,103.720793 C237.56958,108.233471 250.608759,114.29692 262.160354,122.814661 C287.72495,141.667044 289.063954,169.847051 265.482803,190.728249 C259.276483,196.224944 252.196588,200.606201 244.212687,204.78704 C255.051818,212.539253 265.577679,220.071334 276.10354,227.601774 C258.43513,224.96842 241.357458,220.899288 225.15694,214.149163 C222.555907,213.064938 220.37555,212.951587 217.561493,213.878107 C186.78767,224.007402 154.907558,227.20751 122.477881,225.285474 C96.1829198,223.726489 70.3068446,219.55222 45.4887259,211.02298 C35.569713,207.612597 26.2539679,203.08842 18.1000058,196.776913 C-2.90159324,180.520101 -5.83379739,158.09306 10.3899915,137.696478 C19.6770948,126.021341 32.0789937,117.838723 45.8968716,111.277516 C47.957291,110.298428 50.0374016,109.352194 52.8389276,108.052767" id="Fill-1" fill="#252425"></path>
                    <path d="M161.165075,112.708365 C161.578591,123.997453 160.184093,134.9892 153.573208,144.865509 C145.250976,157.293033 130.935446,157.105758 122.990927,144.528742 C112.065871,127.233702 118.646325,96.4663383 136.132143,84.4544336 C138.561325,82.7837406 142.565807,78.1478551 144.882212,85.0852557 C145.143569,85.862284 146.110229,85.813001 146.611461,85.3152429 C150.41545,81.538524 152.613708,84.8158421 154.699189,87.0286478 C158.945336,91.5363976 160.656683,97.057734 161.118532,102.876411 C161.376308,106.137301 161.165075,109.429404 161.165075,112.708365" id="Fill-3" fill="#979797"></path>
                    <path d="M102.859681,104.350136 C104.578189,97.4439483 105.942255,91.6860536 107.45669,85.9642998 C109.033779,80.0043449 109.173408,79.8417111 115.315283,82.0988715 C116.818978,82.6508408 117.663911,83.1814542 118.884768,82.0512313 C119.783404,81.2183489 120.712472,80.4347496 122.128451,81.2561325 C123.897082,82.2812185 123.479986,83.7169959 123.104063,85.190557 C119.577541,99.0587872 115.979415,112.912233 112.579992,126.80839 C110.745126,134.312545 109.237852,141.887338 107.633911,149.439134 C107.290209,151.055615 107.057495,152.624457 105.775774,153.946883 C101.681787,158.180291 100.555806,158.09651 98.8426688,152.908655 C98.4094616,151.591157 98.7907556,150.204663 96.5853371,150.727062 C92.1673396,151.77679 92.2872771,149.516344 93.0230133,146.703928 C94.8954709,139.543111 96.6426207,132.352725 98.622485,125.214907 C99.4405664,122.266142 99.0395812,120.00241 96.6390404,117.658183 C90.8874092,112.034996 85.9466989,105.790842 81.3425297,99.3397002 C79.7564901,97.1186806 76.808175,95.3017815 80.4098812,92.0178923 C81.9422174,90.6215413 79.181864,86.8678211 84.468066,86.1959298 C87.9641556,85.7507402 89.7095152,85.8263074 91.5175288,88.4514474 C94.9975073,93.5062383 97.8706378,98.9536502 102.859681,104.350136" id="Fill-5" fill="#979797"></path>
                    <path d="M83.9272731,179.649435 C84.8509711,178.415718 88.0087294,178.016526 86.648244,176.102704 C85.3522026,174.280876 83.6694969,176.569249 82.1210496,176.892874 C76.458924,178.078951 73.4909176,183.176454 68.0883583,184.645087 C66.8675016,184.976925 65.7039285,185.77531 66.7171322,187.20123 C67.6014477,188.444804 68.7274284,188.053826 69.978717,187.487072 C76.6218243,184.470953 76.8169465,184.502166 76.5502198,191.653126 C76.4553438,194.219127 77.9769394,199.116212 75.470782,198.956864 C71.554016,198.712091 74.5882565,194.166558 73.6645585,191.633413 C73.5052385,191.196437 73.5231396,190.703607 73.2940052,188.991845 C68.7918725,194.590392 64.3523937,194.99944 60.4463683,189.484675 C59.8234092,190.102355 59.4206339,190.312629 59.4116834,190.536045 C59.0196487,199.540045 59.023229,199.540045 48.6513176,199.540045 C39.3982264,199.540045 39.3982264,199.540045 39.3982264,191.134012 C39.4000165,183.914056 39.5002628,176.692457 39.3498934,169.475786 C39.2926098,166.81779 39.9782228,165.482222 43.1932648,165.792704 C45.4917691,166.014478 47.8833593,166.10483 50.1532219,165.77792 C56.0086796,164.931895 60.4964915,166.6453 64.055235,170.978917 C64.8697362,171.969504 66.3537394,174.673497 68.0328648,172.112425 C73.1096237,164.370069 81.1866109,165.774634 88.8930449,165.817346 C90.3233448,165.82556 91.7536446,165.827203 93.1839444,165.830488 C96.026643,168.963243 95.5379423,172.237275 93.6815957,175.573733 C94.2633822,180.666307 91.3866716,184.668085 88.9736,189.412393 C87.2550921,186.432416 88.2933573,183.355515 86.0217046,181.292201 C85.4470785,180.612096 83.4403625,181.467977 83.9272731,179.649435" id="Fill-7" fill="#979797"></path>
                    <path d="M205.292062,201.481959 C209.017286,197.007065 211.817022,191.996628 218.211304,190.652846 C225.765578,189.067577 232.560845,185.772188 239.243335,182.315809 C241.513197,181.141231 243.820652,179.79252 244.674536,176.833899 C240.723758,176.235932 237.247359,177.699636 233.667135,178.108685 C230.969435,178.417525 228.291427,178.749364 225.810331,177.512361 C222.464611,175.843311 220.937645,173.247741 223.465284,170.251336 C231.796467,160.384883 241.685048,152.631028 256.143786,151.960779 C262.611462,151.661796 263.907504,153.721824 260.916226,158.998389 C258.859387,162.628901 256.390822,165.234328 251.201286,164.081107 C249.944627,163.801836 249.112225,163.844548 249.404013,162.615759 C250.62845,157.43119 247.803652,160.117112 245.945516,161.110986 C245.186508,161.516749 244.520586,162.108145 243.910158,162.701183 C242.494179,164.074536 239.783949,165.321395 240.687955,167.291071 C241.570481,169.208179 244.194786,167.703406 246.024281,167.659051 C249.753085,167.568699 253.469358,166.781814 257.208903,167.567056 C264.691573,169.140826 266.469155,174.147976 261.45147,179.449182 C250.295489,191.236028 235.097434,195.770062 219.297902,199.149231 C214.681202,200.136534 209.962466,200.714787 205.292062,201.481959" id="Fill-9" fill="#979797"></path>
                    <path d="M147.823188,204.926347 C144.307407,206.294771 140.965267,202.120502 138.432258,206.465618 C137.692942,207.733834 135.75604,205.604809 134.726726,204.601079 C130.450147,200.433382 126.254123,196.195045 121.402919,191.3571 C119.387252,196.369179 117.525535,200.844073 115.789126,205.358394 C114.342715,209.128542 110.066137,207.443064 107.542078,209.098972 C107.817756,206.697248 104.926724,205.065982 105.9811,202.304492 C109.271327,193.688185 112.264395,184.974954 115.511659,175.916742 C113.064575,175.560262 112.049581,178.35625 109.561325,177.165245 C108.52127,176.358647 113.673213,174.106414 108.961637,173.373741 C106.92986,173.05833 108.410283,171.56177 109.418116,170.980231 C120.418357,164.621084 131.674584,158.999539 145.429808,160.7228 C148.784478,161.143348 151.775756,162.0173 153.148773,165.154983 C154.557591,168.379732 153.58556,171.297285 151.20113,173.812359 C146.355296,178.918076 140.976008,183.512892 134.198642,186.348306 C130.700763,187.813654 131.151871,188.975089 133.480807,191.107399 C138.258617,195.473871 142.798342,200.057188 147.823188,204.926347" id="Fill-11" fill="#979797"></path>
                    <path d="M173.010607,159.682765 C172.031415,167.05057 175.44337,173.688988 177.254964,180.593533 C177.595085,181.879819 178.395265,181.9636 179.630443,181.690901 C183.140853,180.920443 183.137273,183.782142 181.950428,184.700448 C177.215581,188.353959 181.010619,191.867836 181.710553,195.324215 C182.351414,198.484897 184.308007,201.463232 179.462172,203.487119 C176.624844,204.676482 172.860238,203.942165 171.807651,201.218459 C171.567776,200.602422 171.395926,199.958458 171.089816,199.368705 C169.70964,196.71071 170.661979,192.699075 167.228544,191.412789 C164.126279,190.252997 156.111946,195.491777 154.337944,198.897231 C153.706035,200.109592 153.657702,202.227118 151.445123,201.855853 C149.484949,201.525657 150.360314,199.7104 150.313771,198.568678 C150.260068,197.165756 148.69551,195.867971 148.37866,195.912325 C140.933582,196.897985 145.752565,192.692504 146.337932,191.296153 C150.684325,180.904016 155.440653,170.656442 159.835379,160.279089 C160.96494,157.611237 162.223389,155.889618 165.554789,156.963987 C166.700461,157.331967 167.409345,157.483101 168.220266,156.42516 C168.850386,155.603777 169.632665,154.166357 171.130989,155.503568 C172.378697,156.620649 173.733812,157.7673 173.010607,159.682765" id="Fill-13" fill="#979797"></path>
                    <path d="M188.375142,166.528171 C183.40937,170.145541 182.961842,165.19753 180.765374,163.97367 C179.336864,163.178571 181.567344,161.603158 182.960052,160.90334 C190.104391,157.30404 197.871688,155.610348 205.886022,154.782394 C209.949577,154.363489 214.023873,153.775379 218.126811,154.700256 C225.76164,156.418589 228.076255,162.753095 222.825856,168.067442 C217.285458,173.677488 209.874392,176.691964 202.497339,179.566804 C199.538283,180.720026 198.53045,182.144304 198.607425,184.997788 C198.713041,188.910857 198.431994,192.837068 197.458172,196.702496 C197.044656,198.35019 195.907935,200.050453 194.518808,199.426202 C191.711912,198.171129 187.506937,202.000416 185.374914,196.659784 C184.769856,195.138583 184.105724,193.587812 184.316957,192.097823 C185.498431,183.856066 186.90367,175.640594 188.375142,166.528171" id="Fill-15" fill="#979797"></path>
                    <path d="M165.474413,130.29746 C167.701313,113.912513 169.471734,97.7904076 174.482258,82.1857738 C174.804479,81.1836866 174.713183,79.7150538 176.159594,79.3372176 C178.035632,78.8443878 178.601307,80.3376621 179.222476,81.4629568 C180.045928,82.956231 180.924873,83.7891134 182.972762,83.0695819 C186.323852,81.8900759 187.020206,82.9759442 186.080397,86.0561304 C182.281778,98.5165102 180.124693,111.270945 178.116187,124.061521 C177.611375,127.253415 177.69909,132.074933 171.227834,129.814487 C170.221791,129.462935 169.860188,130.537304 169.358957,131.194411 C168.565937,132.229353 167.785448,133.77191 166.100952,133.086877 C164.713615,132.521765 165.896879,131.005493 165.474413,130.29746" id="Fill-17" fill="#979797"></path>
                    <path d="M172.879571,134.957987 C174.737707,134.764141 175.908441,135.166619 175.557579,138.120312 C174.678634,145.534115 172.688029,148.131328 165.38437,149.701812 C164.471413,149.898944 163.764318,149.742881 163.289938,148.788434 C160.499153,143.183317 165.733442,135.038483 172.879571,134.957987" id="Fill-19" fill="#979797"></path>
                    <path d="M83.9272731,179.649435 C84.6254169,180.196476 85.3235608,180.74516 86.0217046,181.292201 C83.0232663,181.234704 82.2749993,182.861043 82.8979584,185.137916 C83.5030164,187.347437 84.3658506,189.504388 85.248376,191.638341 C87.9729272,198.22419 88.543973,198.347397 93.3575853,193.226896 C93.543757,195.659832 93.3504249,198.790944 91.7536446,199.214778 C88.6585402,200.032875 85.0944264,199.485834 81.7415458,199.278846 C80.7927862,199.219706 80.8357489,198.038557 80.8321687,197.223745 C80.8178478,192.48108 80.8500698,187.735129 80.7659345,182.990821 C80.7301323,180.917651 82.1156793,180.158693 83.9272731,179.649435" id="Fill-21" fill="#979797"></path>
                    <path d="M98.7936198,182.113584 C98.7936198,187.234086 98.8043604,192.090102 98.7846692,196.946118 C98.781089,198.054985 99.0424454,199.456264 97.1502965,199.457907 C95.1435805,199.457907 95.6806142,197.938349 95.660923,196.921477 C95.5911086,193.479882 95.5570965,190.035002 95.6537626,186.596693 C95.7056758,184.774865 96.3429558,183.122243 98.7936198,182.113584" id="Fill-23" fill="#979797"></path>
                    <path d="M96.7500274,166.41597 C100.068896,169.9857 99.7860581,173.571858 95.8818229,177.452072 C94.5643001,173.665496 92.8511625,169.855922 96.7500274,166.41597" id="Fill-25" fill="#979797"></path>
                    <path d="M96.7500274,166.41597 C94.4747945,169.962702 95.9534274,173.759134 95.8818229,177.452072 C95.1478768,176.824535 94.4139307,176.198641 93.6817747,175.572747 C93.5152942,172.326642 93.3506039,169.077251 93.1841234,165.831145 C94.419301,165.781862 95.7314534,165.349815 96.7500274,166.41597" id="Fill-27" fill="#17191A"></path>
                    <path d="M61.2343758,193.590604 C64.9989823,194.41363 64.8056501,196.577153 64.4995409,198.679893 C64.3617023,199.635983 63.2375116,200.028604 62.5053557,199.593271 C59.9991983,198.104925 61.7875206,195.875692 61.2343758,193.590604" id="Fill-29" fill="#979797"></path>
                    <path d="M62.7692182,166.916521 C65.0301302,167.049585 67.1191914,167.269715 68.2004193,169.195037 C68.2970854,169.367527 67.6472746,170.195481 67.2838818,170.233265 C64.70791,170.49775 64.1887774,168.10424 62.7692182,166.916521" id="Fill-31" fill="#979797"></path>
                    <path d="M131.741892,122.252178 C131.953125,113.111829 132.794478,106.289422 137.846175,100.643235 C139.484128,98.8099082 140.726466,95.8808565 143.685522,96.1223431 C147.874385,96.4640384 144.138421,99.3470926 144.949342,101.052284 C148.529566,108.569581 147.462659,116.464714 146.447666,124.280994 C145.980446,127.885223 144.76854,131.354745 142.468246,134.346221 C139.532461,138.167295 136.252975,137.8256 134.069038,133.539623 C131.892262,129.268432 131.856459,124.652259 131.741892,122.252178" id="Fill-33" fill="#252425"></path>
                    <path d="M123.642707,182.962237 C125.337944,178.337851 126.487196,174.924183 127.847682,171.58444 C128.962922,168.849235 139.377796,166.137028 141.479388,168.121489 C143.813694,170.324439 141.602905,172.18405 140.056248,173.547545 C135.648991,177.42283 130.162297,179.804841 123.642707,182.962237" id="Fill-35" fill="#252425"></path>
                    <path d="M163.67893,177.530267 C167.787238,186.158074 167.602856,186.466914 159.090872,186.113719 C160.549813,183.383442 161.92462,180.814156 163.67893,177.530267" id="Fill-37" fill="#121212"></path>
                    <path d="M200.260951,173.317394 C199.661264,164.563094 201.35829,162.488281 209.671572,161.832817 C210.883479,161.737537 212.166989,161.40077 213.053095,162.568776 C214.077039,163.912559 213.215995,165.054281 212.512481,166.156577 C210.853047,168.750505 206.198754,171.434784 200.260951,173.317394" id="Fill-39" fill="#252425"></path>
                </g>
                <g id="schoen" transform="translate(636.044537, 459.742704) rotate(24.000000) translate(-636.044537, -459.742704) translate(507.544537, 332.242704)">
                    <path d="M2.04707254,234.569059 C2.04707254,234.569059 -3.35352941,224.735242 10.8364348,214.003452 C25.026399,203.271663 32.8464706,196.731602 32.8464706,196.731602 C32.8464706,196.731602 31.0083875,189.470835 35.2593656,185.78942 C39.5103438,182.108006 62.2154136,154.501872 65.9300885,141.359974 C69.6447634,128.218076 72.8738538,124.243903 72.8738538,116.901665 C72.8738538,109.559428 73.2739679,105.404407 75.7779688,102.415048 C78.2819696,99.4256893 77.0985333,81.3561389 74.9861936,78.6908735 C72.8738538,76.0256081 53.5021294,38.6501177 53.5021294,38.6501177 C53.5021294,38.6501177 50.6637609,23.716753 55.3223671,22.757902 C59.9809733,21.7990511 82.4305711,14.452337 88.0791311,9.31876901 C93.7276912,4.18520105 107.459309,9.92040097 107.459309,9.92040097 C107.459309,9.92040097 116.318174,17.9403699 117.710121,30.3732018 C119.102067,42.8060337 108.723519,60.5085171 118.739522,67.1694423 C128.755526,73.8303676 130.827478,82.5379159 130.827478,82.5379159 L108.216332,114.213123 L80.5737033,156.279014 C80.5737033,156.279014 58.8717366,173.18917 55.6623702,179.489295 C52.4530038,185.78942 52.1806256,196.56866 52.1806256,196.56866 C52.1806256,196.56866 52.6446077,212.55309 60.4017506,220.190772 C68.1588935,227.828454 47.3708025,231.410492 47.3708025,231.410492 L4.42333739,236.896802 L2.04707254,234.569059 Z" id="Path-31" stroke="#979797" stroke-width="2" fill="#252425"></path>
                    <path d="M60.0822962,221.14399 C60.0822962,221.14399 42.9591007,196.170892 52.9844964,181.587584 C63.0098921,167.004276 82.0575804,140.539632 82.0575804,136.361334 C82.0575804,132.183035 102.786499,95.4512555 102.786499,95.4512555 C102.786499,95.4512555 105.662437,89.5164069 111.252765,87.034675 C116.843092,84.5529432 121.268768,81.2636637 121.268768,81.2636637 C121.268768,81.2636637 124.283713,76.9573397 119.076593,74.7576228 C113.869474,72.5579059 105.701885,75.4523645 104.244192,65.9104099 C102.786499,56.3684554 103.442086,29.9315652 103.442086,29.9315652 C103.442086,29.9315652 102.02478,20.4460137 113.222341,18.7834682 C124.419902,17.1209227 126.472131,13.5782774 133.646009,14.9570173 C140.819886,16.3357572 153.662048,3.20102133 153.662048,3.20102133 C153.662048,3.20102133 159.337846,-2.25305889 164.169272,1.07740375 C169.000697,4.4078664 168.749921,7.91022389 168.749921,7.91022389 C168.749921,7.91022389 167.760907,10.5020759 171.836248,12.1583543 C175.911589,13.8146328 180.439642,20.2284593 180.439642,20.2284593 C180.439642,20.2284593 181.673797,25.3521791 185.167751,26.3468414 C188.661706,27.3415038 194.761099,37.5871529 194.761099,37.5871529 C194.761099,37.5871529 198.730306,40.2909156 200.010484,42.9552857 C201.290661,45.6196558 209.3972,49.0539716 217.851255,59.5485101 C226.30531,70.0430485 241.966117,86.1555045 241.966117,86.1555045 L175.783853,150.126351 L108.063122,200.665226 L67.7755711,218.757159 L60.0822962,221.14399 Z" id="Path-30" stroke="#979797" stroke-width="2" fill="#252425"></path>
                    <path d="M213.279994,56.3198901 C213.143629,56.5899897 212.985495,56.9040718 212.807406,57.2588341 C212.29876,58.2720823 211.732058,59.4083973 211.121796,60.6413698 C209.378083,64.1643644 207.63431,67.7566874 206.006304,71.2074416 C205.69602,71.865125 205.392431,72.5124665 205.09604,73.1485501 C201.239974,81.4240447 198.878118,87.1655445 198.53077,89.5425666 C198.100381,92.4878655 198.430973,95.5842744 199.240584,98.5880391 C199.436231,99.3139172 199.646116,99.9780226 199.856665,100.567594 C199.984786,100.926356 200.086316,101.184259 200.147769,101.328377 L208.562386,115.376275 L209.195131,116.431246 L210.09863,115.596368 C210.156059,115.5433 210.266114,115.441385 210.425991,115.292993 C210.692141,115.04596 211.000788,114.758783 211.348392,114.434514 C212.34123,113.508321 213.447408,112.470393 214.638623,111.345128 C218.042384,108.129811 221.446286,104.858301 224.624277,101.725407 C225.154047,101.203154 225.673867,100.688326 226.183075,100.181492 C235.004898,91.4007868 239.558966,86.2508039 239.420254,84.359944 C239.294347,82.643648 236.048762,78.2544905 230.176008,71.2804063 C229.793205,70.8258143 229.40177,70.3636174 229.002275,69.8943957 C226.769053,67.2713915 224.37733,64.5369908 221.985737,61.8525796 C221.148768,60.9131356 220.371533,60.0469691 219.673901,59.2743066 C219.429621,59.0037551 219.212703,58.764175 219.025629,58.5580958 C218.835835,58.3492268 218.835835,58.3492268 218.79529,58.3047734 L218.620357,58.1528173 L214.903438,55.6148149 L213.77563,57.2664958 L217.492549,59.8044982 L217.317616,59.6525421 C217.356637,59.6953233 217.356637,59.6953233 217.544779,59.9023735 C217.73067,60.1071499 217.94639,60.345406 218.18945,60.6146077 C218.884218,61.3840973 219.658514,62.2469887 220.492424,63.1830002 C222.874772,65.8570333 225.256991,68.5805694 227.479448,71.1909287 C227.876639,71.6574447 228.265739,72.1168849 228.646169,72.5686574 C233.945538,78.8618293 237.34921,83.4647753 237.425614,84.5062698 C237.449569,84.8328254 236.090286,86.7488126 233.779293,89.3622074 C231.572962,91.8572444 228.507095,95.0464602 224.772169,98.7639785 C224.265275,99.26851 223.74773,99.7810847 223.220205,100.301124 C220.05345,103.422942 216.65941,106.684973 213.265228,109.891241 C212.077163,111.01353 210.974009,112.048622 209.984115,112.972067 C209.637762,113.29517 209.330345,113.581203 209.065407,113.82711 C208.90663,113.974481 208.797168,114.075848 208.741298,114.127474 L210.277542,114.347567 L201.925212,100.421787 C201.941262,100.435474 201.854338,100.21467 201.740161,99.8949558 C201.546878,99.3537339 201.352931,98.740056 201.171669,98.0675499 C200.427257,95.3056802 200.124388,92.4689329 200.509753,89.8317503 C200.815327,87.7405987 203.167379,82.0229305 206.908896,73.993272 C207.203917,73.3601279 207.506157,72.7156625 207.815108,72.0608043 C209.437214,68.6225577 211.175704,65.0411159 212.914255,61.5285507 C213.522785,60.2990773 214.087818,59.166111 214.594832,58.1561136 C214.772224,57.80274 214.92967,57.4900217 215.065357,57.2212654 C215.202722,56.9494725 215.202722,56.9494725 215.231302,56.8931484 L213.447766,55.9881624 C213.418308,56.0462183 213.418308,56.0462183 213.279994,56.3198901 Z" id="Path-28" fill="#979797"></path>
                    <path d="M104.311514,199.104674 C104.238955,198.455085 104.166259,197.701437 104.098324,196.853007 C103.349621,187.502521 103.785,177.082663 106.273183,167.271627 C108.394578,158.906857 111.861901,151.830779 116.873962,146.440919 C119.465721,143.653799 122.435847,140.678177 125.743667,137.539843 C128.635214,134.796453 131.763138,131.949261 135.092354,129.020175 C141.697411,123.208964 148.776685,117.348545 155.856236,111.733249 C158.334244,109.767765 160.6351,107.973461 162.699649,106.387028 C163.421936,105.83201 164.062987,105.3427 164.615408,104.92368 C164.946353,104.672653 165.173895,104.501077 165.290643,104.413534 C165.451873,104.270408 165.598434,104.132043 165.810752,103.930754 C166.164047,103.59581 166.573706,103.205687 167.035038,102.764253 C168.352546,101.50357 169.820386,100.084115 171.401029,98.5368244 C175.917506,94.1156484 180.43418,89.5549738 184.651323,85.1016483 C186.051284,83.6232827 187.397393,82.1783032 188.683062,80.7721167 C196.651121,72.0571422 201.892215,65.3046137 203.564363,61.1219991 C206.624321,53.4679988 207.423894,49.601451 206.851425,48.0606161 C206.744988,47.7741342 206.585527,47.555618 206.388268,47.415618 L205.115755,48.9513324 L213.697546,57.2175049 L213.463536,56.1240737 C213.433537,56.1986484 213.373254,56.3462318 213.283718,56.5619458 C213.13368,56.9234214 212.95644,57.3432896 212.753028,57.8166704 C212.170986,59.1712022 211.496573,60.6813697 210.738072,62.3080931 C208.571312,66.9550432 206.166894,71.6014283 203.592502,75.9333066 C201.643945,79.212106 199.67199,82.180823 197.694049,84.7651481 C195.359321,87.815641 192.334363,91.5343677 188.761192,95.7734546 C188.233929,96.3989817 187.696253,97.0340099 187.148789,97.6778919 C183.679908,101.757706 179.962327,106.025449 176.244628,110.223612 C174.943351,111.693063 173.735064,113.048789 172.650806,114.258651 C172.271411,114.681996 171.934653,115.056832 171.64441,115.379141 C171.470426,115.572348 171.350712,115.704999 171.289145,115.77308 C170.958458,116.170341 170.80003,116.365666 170.622006,116.589022 C170.115515,117.224483 169.552049,117.958755 168.945827,118.783047 C167.215762,121.135451 165.4863,123.741473 163.871236,126.531526 C159.869688,133.444275 157.227392,140.318093 156.589015,146.786502 C156.155353,151.180626 156.673305,155.256257 158.26432,158.933644 C159.531285,161.862036 158.676078,165.148013 155.795026,168.816608 C151.442152,174.359352 142.800043,180.36279 131.160592,186.482369 C125.016977,189.712447 118.429765,192.769761 111.841971,195.556663 C109.535888,196.532228 107.394805,197.404156 105.473931,198.160387 C104.802203,198.42484 104.206185,198.655869 103.692772,198.851967 C103.385693,198.969257 103.174993,199.048617 103.067566,199.088545 L104.40641,199.88803 C104.38798,199.755621 104.354713,199.491413 104.311514,199.104674 Z M102.597174,201.397058 L103.764352,200.963242 C103.877316,200.921256 104.093623,200.839784 104.406392,200.720321 C104.926061,200.521833 105.528416,200.288349 106.20658,200.021361 C108.142541,199.259191 110.299075,198.380971 112.621194,197.398621 C119.256836,194.591478 125.893059,191.511416 132.091317,188.252609 C143.963895,182.010461 152.793498,175.876776 157.367958,170.051876 C160.658615,165.861709 161.703653,161.846338 160.09989,158.139487 C158.652318,154.79365 158.177347,151.05622 158.579346,146.98293 C159.185226,140.843797 161.731114,134.220778 165.60215,127.533492 C167.178276,124.810706 168.867946,122.264644 170.557013,119.967986 C171.147487,119.165106 171.69524,118.451311 172.185996,117.835591 C172.478393,117.46874 172.685352,117.21778 172.792604,117.091671 C172.835032,117.045445 172.955686,116.911753 173.130623,116.717488 C173.421916,116.394012 173.759739,116.017991 174.140217,115.593437 C175.227023,114.380733 176.437924,113.022073 177.741924,111.549547 C181.467877,107.342063 185.193949,103.064573 188.672476,98.9734141 C189.221758,98.3273935 189.761275,97.690191 190.290407,97.0624466 C193.882115,92.8013684 196.925484,89.0600089 199.282263,85.9807045 C201.311486,83.3293748 203.325758,80.2969507 205.311804,76.9550705 C207.923646,72.5601755 210.357739,67.8564461 212.55071,63.153282 C213.318114,61.5074654 214.000767,59.9788457 214.590567,58.6062608 C214.7973,58.1251508 214.977755,57.6976649 215.130917,57.3286627 C215.2233,57.1060902 215.286345,56.9517428 215.319034,56.8704823 L215.5707,56.2448655 L215.085023,55.7770511 L206.503232,47.5108786 L205.230719,49.0465931 C205.011933,49.7135744 204.936236,50.3234752 204.773385,51.1109818 C204.339879,53.2073179 203.359113,56.247745 201.707273,60.3795612 C200.158519,64.2535243 195.003015,70.8957796 187.207011,79.4225707 C185.929494,80.8198408 184.591307,82.2563172 183.199126,83.7264678 C179.001172,88.1595286 174.501673,92.7028615 170.001975,97.1076126 C168.426957,98.6493964 166.96454,100.063607 165.652331,101.31922 C165.193262,101.758489 164.78583,102.14649 164.434736,102.479347 C164.224421,102.678738 164.079835,102.815239 164.005675,102.884975 C163.971146,102.903139 163.740667,103.07693 163.406743,103.330216 C162.85105,103.751717 162.206688,104.243555 161.481039,104.801156 C159.408627,106.393632 157.099726,108.194209 154.613381,110.166306 C147.509066,115.801243 140.404474,121.682621 133.771256,127.518608 C130.424076,130.463499 127.277819,133.32738 124.367113,136.088947 C121.030699,139.25441 118.031595,142.259063 115.40935,145.078968 C110.145654,150.739431 106.532629,158.112854 104.334556,166.779971 C101.783952,176.837136 101.339996,187.462261 102.104705,197.012638 C102.17434,197.882302 102.249039,198.656718 102.323876,199.326694 C102.369115,199.731694 102.404633,200.013782 102.425508,200.163756 L102.597174,201.397058 Z" id="Path-29" fill="#979797"></path>
                    <path d="M119.399121,18.2105579 C119.399121,18.2105579 132.905792,21.4635784 132.905792,36.9493344 C132.905792,52.4350904 147.881896,59.3064078 147.881896,59.3064078 C147.881896,59.3064078 161.64263,69.8985324 182.35746,67.1061365 C203.072291,64.3137405 200.124971,43.279004 200.124971,43.279004 C200.124971,43.279004 198.102798,40.6074716 196.741846,38.9082194 C195.380895,37.2089672 191.191906,29.9361142 187.091205,27.6097144 C182.990505,25.2833146 181.620161,30.109352 181.620161,30.109352 C181.620161,30.109352 178.028526,45.6550921 167.863184,43.4804432 C157.697842,41.3057944 156.466505,26.7645647 156.466505,26.7645647 C156.466505,26.7645647 156.885404,20.5235284 162.374294,18.8851557 C167.863184,17.2467829 170.228178,12.5447426 170.228178,9.83739881 C170.228178,7.13005498 166.850219,2.4158453e-13 160.132809,2.4158453e-13 C153.4154,2.4158453e-13 150.374156,8.83557415 139.886187,11.710784 C129.398218,14.5859939 119.399121,18.2105579 119.399121,18.2105579 Z" id="Path-32" stroke="#979797" stroke-width="2" fill="#252425"></path>
                    <path d="M50.7349953,198.735705 C51.075046,198.544045 51.4683314,198.315666 51.9104282,198.050857 C53.1690768,197.296947 54.5696838,196.400857 56.0768706,195.364833 C60.3797591,192.407073 64.681822,188.917426 68.6997261,184.91235 C73.3340729,180.292798 77.287926,175.278197 80.3483051,169.879137 C83.136401,164.960433 86.6451309,158.894595 90.7174883,151.937852 C90.9236889,151.585602 91.1311404,151.231402 91.3398149,150.875297 C95.280663,144.150192 99.5032465,137.007773 103.725863,129.907612 C105.203804,127.422514 106.576169,125.120228 107.807754,123.058183 C108.238786,122.336505 108.621424,121.696419 108.951269,121.145104 C109.149137,120.814379 109.285463,120.586694 109.355695,120.469483 L123.628474,93.1807457 C123.648161,93.144454 123.758213,92.9940635 123.97883,92.7707187 C124.388453,92.3560307 124.962239,91.9298051 125.729259,91.5226448 C126.645562,91.03624 127.766225,90.6173504 129.112816,90.2910949 C134.158238,89.0686772 138.54706,83.3613373 138.54706,78.7973504 C138.54706,73.4606188 136.380832,69.3577449 131.256881,67.7982742 C125.702671,66.1078547 119.655721,60.5806605 119.655721,56.8539631 C119.655721,52.8087413 119.655721,52.8087413 119.655721,46.4978832 L119.655721,44.222385 C119.655721,40.6324041 119.655721,40.6324041 119.655721,37.7960575 C119.655721,35.5699875 119.655721,35.5699875 119.655721,35.0313897 C119.721979,31.0282605 119.605418,26.8622087 119.173319,22.8647925 C118.946936,20.7704848 118.64415,18.8730748 118.255133,17.2166591 L116.308108,17.6739279 C116.676451,19.2423117 116.966719,21.0612789 117.184902,23.0797295 C117.606569,26.9806386 117.721033,31.0717539 117.66655,34.4950312 C117.655721,35.5699875 117.655721,35.5699875 117.655721,37.7960575 C117.655721,40.6324041 117.655721,40.6324041 117.655721,44.222385 L117.655721,46.4978832 C117.655721,52.8087413 117.655721,52.8087413 117.655721,56.8539631 C117.655721,61.6530799 124.374249,67.794128 130.674555,69.7116212 C134.81646,70.9722067 136.54706,74.2499945 136.54706,78.7973504 C136.54706,82.4471367 132.78112,87.3444653 128.641876,88.3473317 C127.136113,88.7121519 125.858585,89.1896752 124.791521,89.7561091 C123.146207,90.6294984 122.234954,91.5520182 121.862342,92.2423413 L107.611752,119.492086 C107.569536,119.559274 107.433085,119.787166 107.234987,120.118275 C106.904889,120.670015 106.521993,121.310531 106.090698,122.032648 C104.858494,124.09573 103.485493,126.399084 102.006887,128.885301 C97.7822271,135.988898 93.5575335,143.134885 89.6142562,149.864136 C89.4054299,150.2205 89.197826,150.574961 88.991472,150.927472 C84.9148181,157.891555 81.4017636,163.964869 78.6083867,168.892889 C75.6433395,174.123767 71.800545,178.997514 67.2877754,183.495877 C63.3617313,187.409387 59.1524213,190.823796 54.9439367,193.716664 C53.4721429,194.728359 52.1065537,195.602045 50.8827185,196.335103 C50.4559461,196.590733 50.0778883,196.810269 49.752988,196.99339 C49.560503,197.101878 49.4300315,197.173331 49.3660155,197.207432 L50.3062945,198.972616 C50.3841347,198.931152 50.5285097,198.852085 50.7349953,198.735705 Z" id="Path-33" fill="#979797"></path>
                    <path d="M33.3834559,196.359776 C33.746824,195.941431 34.1679427,195.450988 34.6420049,194.892118 C35.9950031,193.297073 37.5020155,191.472469 39.1245969,189.447655 C43.7599062,183.66327 48.39512,177.431241 52.7229302,170.985417 C57.9686168,163.172511 62.3985695,155.578755 65.7516537,148.399104 C66.7658997,146.227392 67.6757543,144.104856 68.475924,142.035265 C74.7443672,125.822307 76.0554882,114.819963 74.5032948,108.136741 C74.2878896,107.209278 74.062584,106.594398 73.8934411,106.266124 L72.1155621,107.182173 C72.208779,107.363089 72.377013,107.822216 72.5551473,108.589202 C74.0079606,114.844527 72.7441786,125.449623 66.6104959,141.314031 C65.8271937,143.339996 64.9351404,145.421004 63.939537,147.552798 C60.6345876,154.629383 56.2548362,162.137084 51.062476,169.870566 C46.7685381,176.265942 42.1661645,182.453816 37.5638865,188.196982 C35.9533123,190.206812 34.4581088,192.017119 33.1168106,193.59837 C32.6478692,194.151204 32.2318315,194.63573 31.873513,195.04826 C31.6593354,195.294842 31.5124969,195.462067 31.4378124,195.546247 L32.9338878,196.87356 C33.0131631,196.784205 33.1646216,196.611719 33.3834559,196.359776 Z" id="Path-40" fill="#979797"></path>
                    <path d="M94.332305,129.30152 C94.332305,129.30152 92.1692465,121.822303 78.788903,124.921782 C65.4085595,128.021261 66.0904442,132.350863 66.0904442,132.350863 C66.0904442,132.350863 63.4521327,137.060065 68.5653287,136.143293 C73.6785247,135.22652 83.5592782,131.841445 90.6636526,132.830736 C97.7680271,133.820026 95.0085543,130.985552 95.0085543,130.985552 L94.332305,129.30152 Z" id="Path-34" stroke="#979797" fill="#252425"></path>
                    <path d="M63.716007,142.640929 C63.716007,142.640929 59.0630362,142.828939 58.5056001,145.234124 C57.9481641,147.639309 58.1980006,152.190941 58.1980006,152.190941 L64.2589172,157.341072 L70.3756536,149.06908 L64.8642219,143.600675 L63.716007,142.640929 Z" id="Path-36" stroke="#979797" fill="#252425"></path>
                    <path d="M87.3639199,146.772954 C87.3639199,146.772954 81.5851173,137.698675 74.91803,143.621349 C68.2509428,149.544023 61.2569405,161.937776 61.2569405,161.937776 L63.821522,160.597534 C63.821522,160.597534 74.5860016,152.458389 78.4707722,153.841708 C82.3555428,155.225027 85.5392335,151.109488 85.5392335,151.109488 L87.3639199,146.772954 Z" id="Path-35" stroke="#979797" fill="#252425"></path>
                    <path d="M53.5019897,160.331276 C50.1924654,163.87828 49.836155,166.475622 49.836155,166.475622 L55.0160367,169.802056 L63.1493432,163.62727 L57.3692903,158.401936 C57.3692903,158.401936 56.8115139,156.784272 53.5019897,160.331276 Z" id="Path-37" stroke="#979797" fill="#252425"></path>
                    <path d="M60.5772254,169.882383 C60.5772254,169.882383 61.871961,168.126728 63.6480546,169.004556 C65.4241482,169.882383 70.9571823,168.6639 70.9571823,168.6639 C70.9571823,168.6639 76.7292518,166.035341 76.7292518,162.904975 C76.7292518,159.774608 72.4623066,157.270047 72.4623066,157.270047 C72.4623066,157.270047 68.0098625,155.136133 59.1467703,163.03882 C50.2836781,170.941506 50.8829101,171.367215 50.8829101,171.367215 L57.6299056,171.340356 L60.5410648,170.832729 L60.5772254,169.882383 Z" id="Path-38" stroke="#979797" fill="#252425"></path>
                    <path d="M53.2614276,172.524992 L46.5026917,172.754633 L41.66657,178.97463 C41.66657,178.97463 38.8183395,182.408946 41.992015,182.408946 C45.1656905,182.408946 48.1134799,181.711071 51.667076,181.711071 C55.2206721,181.711071 59.6280329,183.845879 61.7244057,183.845879 C63.8207784,183.845879 69.2298335,182.754078 67.6321946,179.219043 C66.0345556,175.684007 62.155045,172.752395 62.155045,172.752395 L56.0147954,172.400547 L53.2614276,172.524992 Z" id="Path-39" stroke="#979797" fill="#252425"></path>
                    <path d="M-8.81730525e-14,231.578857 C-8.81730525e-14,231.578857 3.80484147,240.513806 45.3941726,225.594766 C86.9835038,210.675726 118.162353,191.31965 124.567936,186.350815 C130.97352,181.381979 228.57085,99.4646845 232.659341,92.9196987 C236.747831,86.3747129 237.565905,83.1216925 237.565905,83.1216925 C237.565905,83.1216925 241.942741,84.395684 245.180754,87.8680494 C248.418767,91.3404148 255.540987,100.094966 255.540987,100.094966 C255.540987,100.094966 258.064242,104.360554 254.696145,108.001681 C251.328048,111.642808 159.445493,197.14975 133.749899,211.372258 C108.054304,225.594766 82.075061,238.469869 82.075061,238.469869 C82.075061,238.469869 59.5907115,246.711869 32.2862073,251.598338 C4.98170308,256.484807 7.28282913,253.151659 7.28282913,253.151659 C7.28282913,253.151659 -1.69737209e-13,247.354684 -1.70530257e-13,238.711596 C-1.70530257e-13,230.068509 -8.81730525e-14,231.578857 -8.81730525e-14,231.578857 Z" id="Path-27" stroke="#979797" stroke-width="2" fill="#252425"></path>
                    <text id="PUMA" transform="translate(138.371849, 100.095340) rotate(-40.000000) translate(-138.371849, -100.095340) " font-family="Plymouth-Serial-ExtraBold-Regular, Plymouth-Serial-ExtraBold" font-size="10" font-weight="600" fill="#979797">
                        <tspan x="118.8319" y="104.09534">PUMA</tspan>
                    </text>
                    <ellipse id="Oval" fill="#252425" cx="103.115005" cy="115.173242" rx="2.40444191" ry="2.29193128"></ellipse>
                    <ellipse id="Oval-Copy" fill="#252425" cx="112.459284" cy="98.7541423" rx="2.40444191" ry="2.29193128"></ellipse>
                    <ellipse id="Oval-Copy-2" fill="#252425" cx="112.459284" cy="61.8111679" rx="2.40444191" ry="2.29193128"></ellipse>
                    <ellipse id="Oval-Copy-3" fill="#252425" cx="110.382778" cy="39.2349057" rx="2.40444191" ry="2.29193128"></ellipse>
                </g>
                <path d="M948.428215,222.987725 C944.325897,220.671101 941,222.568907 941,227.223205 L941,261.569879 C941,266.228825 944.325897,268.124171 948.428215,265.809733 L978.92222,248.593066 C983.025927,246.275621 983.025927,242.521017 978.92222,240.20412 L948.428215,222.987725 L948.428215,222.987725 Z" id="play" fill="#FFFFFF"></path>
                <g id="pause" transform="translate(937.000000, 222.000000)" fill="#FFFFFF">
                    <path d="M4.4228726,0.0160871233 C6.91073843,0.0160871233 8.98395996,1.53874436 8.98395996,3.36593305 L8.98395996,41.1278326 C8.98395996,42.9550213 6.91073843,44.4776786 4.4228726,44.4776786 C1.93500676,44.4776786 0,42.9550213 0,41.1278326 L0,3.36593305 C0,1.53874436 1.93500676,0.0160871233 4.4228726,0.0160871233 L4.4228726,0.0160871233 Z" id="Shape"></path>
                    <path d="M31.5129672,0.0160871233 C34.0008331,0.0160871233 35.9358398,1.53874436 35.9358398,3.36593305 L35.9358398,41.1278326 C35.9358398,42.9550213 34.0008331,44.4776786 31.5129672,44.4776786 C29.0251014,44.4776786 26.9518799,42.9550213 26.9518799,41.1278326 L26.9518799,3.36593305 C26.9518799,1.53874436 29.0251014,0.0160871233 31.5129672,0.0160871233 L31.5129672,0.0160871233 Z" id="Shape"></path>
                </g>
            </g>
        </g>
    </g>
</svg>